<svg data-v-423bf9ae="" xmlns="http://www.w3.org/2000/svg" viewBox="0 0 515.9218542588836 202" class="iconAboveSlogan"><!----><!----><!----><g data-v-423bf9ae="" id="07733592-8c9a-4f65-95e9-3b1fc7fddba4" fill="black" transform="matrix(13.798391620239464,0,0,13.798391620239464,0.0000027411636551732954,49.44669863020991)"><path d="M2.98 9.08L2.98 9.08Q2.86 9.23 2.76 9.34Q2.65 9.45 2.54 9.53Q2.42 9.60 2.28 9.66Q2.14 9.71 1.96 9.73L1.96 9.73Q1.87 9.74 1.78 9.74Q1.68 9.75 1.57 9.73L1.57 9.73Q1.42 9.72 1.28 9.72Q1.13 9.72 0.98 9.69L0.98 9.69Q0.66 9.61 0.44 9.46Q0.22 9.31 0.10 9.07L0.10 9.07Q-0.05 8.74 0.27 8.73L0.27 8.73Q0.33 8.73 0.40 8.81Q0.47 8.89 0.51 8.93L0.51 8.93Q0.66 9.07 0.68 9.08L0.68 9.08L0.68 9.08L0.68 9.09Q1.02 9.32 1.57 9.32L1.57 9.32L1.58 9.32L1.59 9.32Q1.82 9.32 2.18 9.23L2.18 9.23Q2.54 9.14 2.65 8.87L2.65 8.87Q2.71 8.70 2.65 8.51L2.65 8.51L2.65 8.50Q2.48 8.14 1.99 8.02L1.99 8.02L1.15 7.80Q0.97 7.76 0.72 7.63L0.72 7.63Q0.59 7.56 0.49 7.51Q0.40 7.45 0.33 7.40L0.33 7.40Q0.05 7.19 0.01 6.99L0.01 6.99Q0 6.95 0 6.89Q0 6.83 0 6.74L0 6.74Q0 6.64 0.01 6.55Q0.03 6.46 0.04 6.36L0.04 6.36Q0.08 6.04 0.31 5.80L0.31 5.80Q0.41 5.69 0.56 5.62Q0.70 5.55 0.84 5.49L0.84 5.49Q1.03 5.40 1.24 5.40Q1.45 5.39 1.65 5.40L1.65 5.40Q2.32 5.42 2.70 5.87L2.70 5.87Q2.87 6.08 2.83 6.22L2.83 6.22L2.78 6.26Q2.67 6.32 2.52 6.19L2.52 6.19Q2.48 6.16 2.45 6.13Q2.41 6.09 2.38 6.06L2.38 6.06Q2.34 6.02 2.29 5.98Q2.24 5.95 2.17 5.91L2.17 5.91L2.15 5.90L2.13 5.90Q1.88 5.82 1.62 5.81Q1.35 5.80 1.07 5.86L1.07 5.86Q0.74 5.93 0.56 6.14Q0.38 6.34 0.38 6.67L0.38 6.67L0.38 6.69L0.39 6.70Q0.42 7.12 1.05 7.30L1.05 7.30L1.24 7.36L1.75 7.53Q1.87 7.57 1.98 7.62Q2.10 7.67 2.23 7.72L2.23 7.72Q2.42 7.81 2.58 7.90Q2.75 7.98 2.88 8.07L2.88 8.07Q2.98 8.13 3.03 8.22Q3.08 8.31 3.10 8.41Q3.12 8.51 3.11 8.62Q3.11 8.73 3.09 8.82L3.09 8.82Q3.08 8.89 3.05 8.96Q3.01 9.03 2.98 9.08ZM8.11 5.75L8.11 5.75Q8.01 5.86 7.79 5.84L7.79 5.84L7.45 5.82Q7.35 5.82 7.25 5.81Q7.16 5.80 7.05 5.80L7.05 5.80Q6.85 5.80 6.75 5.89L6.75 5.89Q6.68 5.98 6.68 6.19L6.68 6.19Q6.68 6.28 6.69 6.37Q6.70 6.47 6.70 6.56L6.70 6.56Q6.71 6.79 6.71 6.96Q6.71 7.12 6.71 7.24L6.71 7.24Q6.71 7.59 6.67 7.94L6.67 7.94Q6.65 8.10 6.67 8.26Q6.69 8.43 6.70 8.59L6.70 8.59Q6.71 8.76 6.71 8.89Q6.71 9.02 6.71 9.11L6.71 9.11Q6.71 9.15 6.71 9.20Q6.71 9.26 6.71 9.35L6.71 9.35Q6.69 9.54 6.68 9.58L6.68 9.58Q6.59 9.73 6.45 9.69L6.45 9.69Q6.27 9.65 6.27 9.43L6.27 9.43Q6.26 9.22 6.28 9.01Q6.30 8.80 6.31 8.60L6.31 8.60Q6.33 8.36 6.31 8.11Q6.28 7.87 6.28 7.62L6.28 7.62Q6.28 7.40 6.30 7.17Q6.32 6.94 6.32 6.71L6.32 6.71Q6.32 6.27 6.18 6.08L6.18 6.08Q6.10 5.99 6.00 5.94Q5.89 5.89 5.76 5.87L5.76 5.87Q5.63 5.86 5.52 5.85Q5.41 5.84 5.30 5.84L5.30 5.84Q5.22 5.84 5.09 5.84Q4.96 5.84 4.89 5.80L4.89 5.80Q4.84 5.77 4.83 5.67L4.83 5.67Q4.81 5.59 4.85 5.54L4.85 5.54Q4.89 5.46 5.09 5.43L5.09 5.43Q5.11 5.43 5.16 5.43L5.16 5.43Q5.45 5.42 5.72 5.45Q5.99 5.48 6.28 5.46L6.28 5.46Q6.39 5.46 6.50 5.44Q6.62 5.43 6.74 5.43L6.74 5.43Q6.97 5.43 7.19 5.43Q7.42 5.43 7.65 5.42L7.65 5.42Q7.77 5.42 7.85 5.43Q7.94 5.43 8.00 5.46L8.00 5.46Q8.21 5.61 8.11 5.75ZM10.05 9.70L10.05 9.70Q9.83 9.67 9.83 9.44L9.83 9.44Q9.82 9.07 9.82 8.72Q9.82 8.36 9.82 7.99L9.82 7.99Q9.82 7.79 9.84 7.58L9.84 7.58Q9.86 7.43 9.86 7.30Q9.86 7.17 9.85 7.06L9.85 7.06Q9.84 6.99 9.84 6.90Q9.83 6.80 9.82 6.67L9.82 6.67Q9.82 6.60 9.83 6.51Q9.83 6.41 9.84 6.28L9.84 6.28Q9.84 6.19 9.85 6.11Q9.85 6.04 9.85 5.99L9.85 5.99L9.85 5.84L9.85 5.83L9.85 5.78Q9.83 5.61 9.86 5.54L9.86 5.54Q9.88 5.49 9.95 5.44L9.95 5.44Q10.21 5.30 10.27 5.61L10.27 5.61Q10.33 5.84 10.34 6.07Q10.35 6.29 10.33 6.51L10.33 6.51L10.33 6.51Q10.31 6.73 10.32 6.94Q10.33 7.15 10.31 7.36L10.31 7.36Q10.29 7.55 10.27 7.68Q10.26 7.82 10.25 7.92L10.25 7.92Q10.24 8.05 10.24 8.20Q10.24 8.35 10.25 8.51L10.25 8.51Q10.25 8.54 10.25 8.59Q10.25 8.63 10.25 8.70L10.25 8.70Q10.25 8.80 10.25 8.91Q10.25 9.02 10.26 9.13L10.26 9.13Q10.26 9.20 10.26 9.27Q10.27 9.33 10.26 9.40L10.26 9.40Q10.26 9.54 10.25 9.55L10.25 9.55Q10.23 9.68 10.05 9.70ZM14.88 5.67L14.88 5.67Q15.02 5.82 15.10 5.99Q15.19 6.16 15.28 6.34L15.28 6.34Q15.37 6.54 15.34 6.74Q15.30 6.94 15.11 7.13L15.11 7.13Q14.97 7.28 14.64 7.37L14.64 7.37Q14.51 7.40 14.37 7.44Q14.23 7.48 14.18 7.60L14.18 7.60Q14.14 7.72 14.20 7.84L14.20 7.84Q14.27 7.97 14.31 8.05Q14.35 8.13 14.38 8.18L14.38 8.18Q14.41 8.24 14.46 8.33Q14.52 8.42 14.59 8.52L14.59 8.52Q14.75 8.74 14.93 8.93Q15.10 9.13 15.28 9.30L15.28 9.30L15.31 9.34Q15.46 9.49 15.32 9.63L15.32 9.63Q15.16 9.79 15.02 9.64L15.02 9.64Q14.90 9.52 14.81 9.43Q14.72 9.34 14.65 9.26L14.65 9.26Q14.49 9.05 14.34 8.83L14.34 8.83Q14.24 8.67 14.13 8.53Q14.03 8.39 13.93 8.23L13.93 8.23Q13.66 7.74 13.25 7.58L13.25 7.58Q12.82 7.42 12.63 7.70L12.63 7.70Q12.56 7.80 12.56 7.92L12.56 7.92L12.56 9.40L12.56 9.49Q12.56 9.69 12.35 9.70L12.35 9.70Q12.14 9.69 12.14 9.44L12.14 9.44Q12.14 9.28 12.15 9.12Q12.16 8.95 12.17 8.76L12.17 8.76Q12.17 8.63 12.16 8.49Q12.15 8.35 12.15 8.22L12.15 8.22Q12.15 8.09 12.16 7.96Q12.17 7.83 12.17 7.70L12.17 7.70Q12.17 7.40 12.15 7.07L12.15 7.07Q12.15 6.84 12.16 6.61Q12.17 6.38 12.16 6.14L12.16 6.14Q12.15 6.02 12.15 5.86Q12.15 5.71 12.20 5.58L12.20 5.58Q12.32 5.42 12.78 5.42L12.78 5.42L12.99 5.42Q13.23 5.42 13.48 5.44Q13.73 5.46 13.98 5.45L13.98 5.45Q14.55 5.42 14.88 5.67ZM12.95 7.15L12.95 7.15Q13.21 7.16 13.41 7.16Q13.61 7.16 13.75 7.14L13.75 7.14Q13.88 7.13 14.04 7.11Q14.20 7.09 14.39 7.05L14.39 7.05Q14.78 6.97 14.90 6.69L14.90 6.69Q14.94 6.59 14.93 6.47L14.93 6.47Q14.92 6.34 14.85 6.24Q14.79 6.14 14.69 6.07Q14.59 6.00 14.47 5.94Q14.36 5.89 14.25 5.87L14.25 5.87Q13.96 5.82 13.68 5.83Q13.39 5.84 13.10 5.82L13.10 5.82Q13.05 5.82 13.00 5.82Q12.95 5.82 12.89 5.82L12.89 5.82Q12.75 5.81 12.67 5.89L12.67 5.89Q12.61 5.96 12.63 6.08L12.63 6.08Q12.63 6.12 12.63 6.23L12.63 6.23Q12.63 6.33 12.61 6.43Q12.59 6.52 12.58 6.62L12.58 6.62Q12.54 6.88 12.65 7.01L12.65 7.01Q12.74 7.14 12.95 7.15ZM17.92 6.24L17.92 6.24Q17.97 6.36 18.00 6.48Q18.03 6.60 18.06 6.73Q18.09 6.85 18.13 6.97Q18.17 7.10 18.23 7.21L18.23 7.21Q18.35 7.42 18.45 7.64Q18.54 7.85 18.64 8.07L18.64 8.07L18.79 8.37Q18.89 8.55 19.05 8.57L19.05 8.57Q19.26 8.59 19.41 8.24L19.41 8.24Q19.50 8.05 19.58 7.84Q19.65 7.63 19.72 7.42L19.72 7.42Q19.73 7.40 19.76 7.34Q19.79 7.27 19.86 7.16L19.86 7.16Q19.90 7.08 19.94 7.02Q19.97 6.95 20.01 6.90L20.01 6.90Q20.17 6.58 20.32 6.25Q20.48 5.91 20.60 5.56L20.60 5.56Q20.62 5.47 20.68 5.45L20.68 5.45Q20.73 5.43 20.90 5.50L20.90 5.50Q21.03 5.57 21.04 5.61L21.04 5.61Q21.05 5.67 21.01 5.77Q20.96 5.87 20.94 5.93L20.94 5.93L20.87 6.05Q20.81 6.16 20.76 6.27Q20.71 6.37 20.66 6.47L20.66 6.47Q20.56 6.66 20.49 6.85Q20.42 7.04 20.34 7.23L20.34 7.23Q20.15 7.64 19.96 8.04Q19.78 8.45 19.56 8.84L19.56 8.84Q19.47 9.00 19.40 9.21L19.40 9.21Q19.33 9.45 19.20 9.54L19.20 9.54Q19.15 9.58 19.08 9.59L19.08 9.59Q19.04 9.60 18.96 9.57L18.96 9.57Q18.91 9.55 18.87 9.50Q18.83 9.45 18.80 9.39Q18.77 9.33 18.74 9.27Q18.72 9.21 18.70 9.16L18.70 9.16Q18.55 8.93 18.42 8.65Q18.30 8.37 18.16 8.04L18.16 8.04Q18.05 7.82 17.97 7.59Q17.88 7.37 17.77 7.15L17.77 7.15Q17.72 7.08 17.62 6.77L17.62 6.77Q17.61 6.73 17.59 6.65Q17.57 6.58 17.53 6.49L17.53 6.49Q17.47 6.34 17.40 6.21Q17.33 6.07 17.26 5.93L17.26 5.93Q17.15 5.67 17.15 5.61L17.15 5.61Q17.17 5.48 17.29 5.43L17.29 5.43Q17.49 5.35 17.59 5.59L17.59 5.59Q17.66 5.76 17.75 5.92Q17.84 6.08 17.92 6.24ZM26.56 9.47L26.56 9.47Q26.56 9.65 26.42 9.69L26.42 9.69Q26.30 9.75 26.20 9.61L26.20 9.61Q26.15 9.54 26.12 9.49Q26.09 9.43 26.07 9.39L26.07 9.39Q25.98 9.18 25.90 9.03Q25.83 8.87 25.75 8.78L25.75 8.78Q25.59 8.55 25.39 8.49L25.39 8.49Q25.22 8.44 24.84 8.48L24.84 8.48Q24.62 8.50 24.43 8.51Q24.23 8.52 24.06 8.50L24.06 8.50Q23.66 8.48 23.47 8.76L23.47 8.76L23.45 8.78L23.45 8.79Q23.38 8.93 23.33 9.06Q23.29 9.19 23.23 9.32L23.23 9.32L23.08 9.54Q22.99 9.69 22.89 9.70L22.89 9.70Q22.84 9.72 22.75 9.65L22.75 9.65Q22.71 9.60 22.70 9.55Q22.69 9.49 22.70 9.43Q22.71 9.37 22.73 9.30Q22.76 9.24 22.78 9.19L22.78 9.19L22.94 8.85Q23.18 8.35 23.39 7.85Q23.60 7.34 23.83 6.83L23.83 6.83Q23.87 6.74 23.90 6.66Q23.93 6.58 23.97 6.51L23.97 6.51Q24.04 6.32 24.12 6.14Q24.19 5.95 24.29 5.76L24.29 5.76L24.39 5.61Q24.47 5.48 24.53 5.48L24.53 5.48Q24.60 5.46 24.71 5.59L24.71 5.59Q24.83 5.73 24.93 5.91Q25.04 6.10 25.12 6.26L25.12 6.26Q25.35 6.77 25.56 7.28Q25.77 7.79 26.01 8.28L26.01 8.28Q26.09 8.43 26.16 8.58Q26.23 8.74 26.31 8.88L26.31 8.88Q26.35 8.98 26.40 9.08Q26.44 9.17 26.48 9.27L26.48 9.27Q26.52 9.34 26.54 9.39Q26.56 9.44 26.56 9.47ZM25.21 7.56L25.21 7.56Q25.14 7.40 25.08 7.22Q25.01 7.05 24.92 6.88L24.92 6.88Q24.76 6.57 24.56 6.58L24.56 6.58Q24.49 6.58 24.43 6.62Q24.37 6.67 24.33 6.72Q24.29 6.78 24.25 6.85Q24.22 6.92 24.20 6.98L24.20 6.98Q24.12 7.18 24.06 7.40Q23.99 7.62 23.93 7.83L23.93 7.83Q23.88 7.98 23.94 8.05L23.94 8.05Q23.98 8.12 24.15 8.13L24.15 8.13Q24.30 8.14 24.42 8.15Q24.53 8.15 24.61 8.14L24.61 8.14Q24.76 8.14 25.01 8.10L25.01 8.10Q25.26 8.06 25.31 7.88L25.31 7.88Q25.33 7.77 25.28 7.69L25.28 7.69Q25.27 7.66 25.24 7.63Q25.22 7.59 25.21 7.56ZM28.66 9.56L28.66 9.56Q28.63 9.68 28.44 9.70L28.44 9.70Q28.25 9.69 28.25 9.49L28.25 9.49Q28.25 8.96 28.23 8.41Q28.21 7.87 28.26 7.33L28.26 7.33L28.26 7.33Q28.26 7.17 28.26 7.02Q28.27 6.87 28.25 6.73L28.25 6.73L28.20 6.21Q28.18 5.99 28.27 5.74L28.27 5.74Q28.33 5.56 28.45 5.52L28.45 5.52Q28.55 5.50 28.65 5.62L28.65 5.62Q28.75 5.72 28.79 5.80L28.79 5.80Q28.88 5.93 28.97 6.03Q29.07 6.13 29.16 6.22L29.16 6.22Q29.23 6.31 29.31 6.37Q29.39 6.44 29.46 6.52L29.46 6.52Q29.53 6.59 29.61 6.70Q29.70 6.80 29.79 6.95L29.79 6.95L30.09 7.41Q30.13 7.46 30.16 7.52Q30.20 7.58 30.26 7.66L30.26 7.66L30.26 7.67Q30.41 7.86 30.56 8.03L30.56 8.03Q30.64 8.11 30.71 8.19Q30.79 8.26 30.87 8.33L30.87 8.33Q30.95 8.42 31.05 8.39L31.05 8.39Q31.21 8.35 31.20 8.07L31.20 8.07Q31.20 8.00 31.19 7.93Q31.18 7.85 31.18 7.78L31.18 7.78Q31.17 7.72 31.17 7.67Q31.16 7.62 31.16 7.56L31.16 7.56Q31.16 7.53 31.15 7.50Q31.15 7.46 31.15 7.42L31.15 7.42Q31.18 6.82 31.11 6.30L31.11 6.30Q31.10 6.27 31.10 6.19Q31.10 6.11 31.12 5.99L31.12 5.99Q31.12 5.84 31.16 5.67L31.16 5.67Q31.18 5.42 31.38 5.42L31.38 5.42Q31.60 5.42 31.60 5.68L31.60 5.68Q31.60 5.89 31.61 6.11Q31.62 6.32 31.62 6.54L31.62 6.54Q31.63 6.85 31.61 7.16Q31.59 7.48 31.60 7.79L31.60 7.79Q31.62 8.00 31.61 8.21Q31.61 8.42 31.60 8.62L31.60 8.62Q31.60 8.74 31.61 8.85Q31.61 8.96 31.61 9.06L31.61 9.06L31.61 9.34Q31.60 9.38 31.60 9.42Q31.60 9.46 31.60 9.50L31.60 9.50Q31.59 9.50 31.59 9.51L31.59 9.51Q31.59 9.52 31.58 9.52L31.58 9.52Q31.51 9.62 31.35 9.62L31.35 9.62Q31.17 9.63 31.07 9.50L31.07 9.50Q30.97 9.37 30.88 9.22Q30.80 9.07 30.69 8.93L30.69 8.93Q30.57 8.76 30.42 8.58Q30.28 8.39 30.10 8.18L30.10 8.18Q30.03 8.10 29.91 7.90L29.91 7.90L29.67 7.52Q29.58 7.38 29.49 7.24Q29.40 7.10 29.31 6.97L29.31 6.97Q29.26 6.92 29.22 6.87Q29.17 6.81 29.11 6.77Q29.06 6.73 28.99 6.71Q28.92 6.69 28.85 6.71L28.85 6.71Q28.67 6.76 28.68 7.08L28.68 7.08Q28.69 7.31 28.69 7.52Q28.70 7.72 28.71 7.90L28.71 7.90Q28.72 8.05 28.71 8.19Q28.69 8.33 28.69 8.47L28.69 8.47L28.69 9.00Q28.69 9.17 28.68 9.31Q28.67 9.45 28.66 9.56ZM37.39 9.47L37.39 9.47Q37.39 9.65 37.24 9.69L37.24 9.69Q37.12 9.75 37.02 9.61L37.02 9.61Q36.98 9.54 36.94 9.49Q36.91 9.43 36.89 9.39L36.89 9.39Q36.80 9.18 36.72 9.03Q36.65 8.87 36.57 8.78L36.57 8.78Q36.41 8.55 36.21 8.49L36.21 8.49Q36.04 8.44 35.66 8.48L35.66 8.48Q35.44 8.50 35.25 8.51Q35.05 8.52 34.88 8.50L34.88 8.50Q34.48 8.48 34.29 8.76L34.29 8.76L34.28 8.78L34.27 8.79Q34.20 8.93 34.16 9.06Q34.11 9.19 34.05 9.32L34.05 9.32L33.91 9.54Q33.81 9.69 33.71 9.70L33.71 9.70Q33.66 9.72 33.57 9.65L33.57 9.65Q33.53 9.60 33.52 9.55Q33.51 9.49 33.52 9.43Q33.53 9.37 33.55 9.30Q33.58 9.24 33.60 9.19L33.60 9.19L33.76 8.85Q34.00 8.35 34.21 7.85Q34.42 7.34 34.65 6.83L34.65 6.83Q34.69 6.74 34.72 6.66Q34.75 6.58 34.79 6.51L34.79 6.51Q34.86 6.32 34.94 6.14Q35.01 5.95 35.11 5.76L35.11 5.76L35.21 5.61Q35.29 5.48 35.36 5.48L35.36 5.48Q35.42 5.46 35.53 5.59L35.53 5.59Q35.65 5.73 35.76 5.91Q35.86 6.10 35.94 6.26L35.94 6.26Q36.18 6.77 36.38 7.28Q36.59 7.79 36.83 8.28L36.83 8.28Q36.91 8.43 36.98 8.58Q37.05 8.74 37.13 8.88L37.13 8.88Q37.17 8.98 37.22 9.08Q37.26 9.17 37.30 9.27L37.30 9.27Q37.34 9.34 37.36 9.39Q37.38 9.44 37.39 9.47ZM36.03 7.56L36.03 7.56Q35.96 7.40 35.90 7.22Q35.83 7.05 35.75 6.88L35.75 6.88Q35.58 6.57 35.38 6.58L35.38 6.58Q35.31 6.58 35.25 6.62Q35.19 6.67 35.15 6.72Q35.11 6.78 35.08 6.85Q35.04 6.92 35.02 6.98L35.02 6.98Q34.95 7.18 34.88 7.40Q34.81 7.62 34.75 7.83L34.75 7.83Q34.70 7.98 34.76 8.05L34.76 8.05Q34.80 8.12 34.97 8.13L34.97 8.13Q35.12 8.14 35.24 8.15Q35.36 8.15 35.43 8.14L35.43 8.14Q35.58 8.14 35.83 8.10L35.83 8.10Q36.08 8.06 36.13 7.88L36.13 7.88Q36.15 7.77 36.10 7.69L36.10 7.69Q36.09 7.66 36.06 7.63Q36.04 7.59 36.03 7.56Z"></path></g><!----><g data-v-423bf9ae="" id="1340aa12-1a44-41b6-ba73-66d4859423b0" transform="matrix(1.1100001017252603,0,0,1.1100001017252603,202.93936478031998,0.5444901526767438)" stroke="none" fill="black"><path d="M97.8 13c-1.2-1.2-3-1.6-4.6-1.1l-.9.3c-1.3.4-2.4 1.5-2.9 2.9-.6 1.8-1.6 3.4-2.9 4.7l-.9.9c-1.9 1.9-4.2 3.3-6.7 4.2l-2.6-2.6c-.4-.4-1-.4-1.4 0l-1.3 1.3c-2.8-5-6.9-9.4-12-12.7.1-.3.1-.6.1-.9 0-2.6-2.1-4.7-4.7-4.8-.9-3-3.7-5.1-7-5.1-3.1 0-5.8 1.9-6.9 4.8-.8-.1-1.6-.1-2.4-.1-5.4-.1-10.7 1-15.6 3.2-2.2-2.1-5.1-3.3-8.2-3.3-6.7 0-12.1 5.4-12.1 12.1 0 2.6.9 5.2 2.5 7.3C2.7 26.7 0 31.4 0 36.6c0 3.9 1.5 7.6 4.3 10.3 2.5 11.2 10.6 20.2 21.2 24.7l-1.2 1.2c-.4.4-.4 1 0 1.4l2.6 2.6c-.9 2.5-2.3 4.8-4.2 6.7l-.9.9c-1.3 1.3-3 2.3-4.7 2.9-1.3.4-2.4 1.5-2.9 2.9l-.2.8c-.5 1.6-.1 3.4 1.1 4.6.9.9 2 1.3 3.2 1.3.5 0 1-.1 1.4-.2l.9-.3c1.3-.4 2.4-1.5 2.9-2.9.6-1.8 1.6-3.4 2.9-4.7l.9-.9c1.9-1.9 4.2-3.3 6.7-4.2l2.6 2.6c.2.2.5.3.7.3s.5-.1.7-.3l50.6-50.6c.4-.4.4-1 0-1.4L86 31.8c.9-2.5 2.3-4.8 4.2-6.7l.9-.9c1.3-1.3 3-2.3 4.7-2.9 1.3-.4 2.4-1.5 2.9-2.9l.3-.9c.5-1.5.1-3.3-1.2-4.5zM6.3 46.2c0-.2-.1-.4-.3-.5-2.6-2.4-4-5.7-4-9.1 0-4.7 2.6-8.9 6.8-11.1.2-.1.3-.2.4-.4l.1-.2.1-.2c.2-.4.2-.8-.1-1.2-1.7-1.9-2.6-4.2-2.6-6.7 0-5.5 4.5-10.1 10.1-10.1 2.8 0 5.4 1.1 7.3 3.1.3.3.8.4 1.2.2 4.8-2.2 10-3.4 15.5-3.4 1 0 2.1.1 3.1.1.5 0 1-.3 1.1-.8.4-2.2 2.6-3.9 5-3.9 2.6 0 4.8 1.8 5.2 4.4 0 .3.2.5.4.7.2.2.5.2.8.2 1.6-.3 3.3 1 3.3 2.7 0 .3-.1.7-.2 1-.2.5 0 1 .4 1.2 5.3 3.3 9.5 7.7 12.2 12.8L27 70.1c-10.4-4.2-18.4-13-20.7-23.9zm19.6 40.4l-.9.8c-1.5 1.5-2.7 3.4-3.4 5.5-.2.7-.8 1.3-1.6 1.6l-.9.3c-.9.3-1.9.1-2.6-.6-.7-.7-.9-1.7-.6-2.6l.3-.9c.2-.7.8-1.3 1.6-1.6 2.1-.7 4-1.9 5.5-3.4l.9-.9c1.9-1.9 3.3-4.1 4.3-6.5l3.9 3.9c-2.4 1-4.7 2.5-6.5 4.4zM43.7 78C45.9 59.6 60.6 44.9 79 42.6L43.7 78zm37.6-37.7l-1.1.1c-20.8 1.8-37.5 19-38.8 39.8l-4.1 4.1L35 82l-6.1-6.1-2.4-2.4 49.2-49.2 2.3 2.3 6.1 6.1 2.4 2.4-5.2 5.2zM97 17l-.3.9c-.2.7-.8 1.3-1.6 1.6-2.1.7-4 1.9-5.5 3.4l-.9.9c-1.9 1.9-3.3 4.1-4.3 6.5l-3.9-3.9c2.4-1 4.7-2.4 6.5-4.3l.9-.9c1.5-1.5 2.7-3.4 3.4-5.5.2-.7.8-1.3 1.6-1.6l.9-.3c.9-.3 1.9-.1 2.6.6.7.7.9 1.7.6 2.6zM92.6 62.8c-5.9-5.9-14.4-7-19-2.5-4.5 4.5-3.4 13 2.5 19 2.8 2.8 6.3 4.7 9.9 5.2.7.1 1.3.1 1.9.1 2.8 0 5.4-1 7.2-2.8 2.2-2.2 3.2-5.5 2.7-9.1-.5-3.6-2.4-7.1-5.2-9.9zm1.1 17.5c-1.8 1.8-4.4 2.5-7.4 2.1-3.1-.4-6.2-2.1-8.7-4.6-5.1-5.1-6.3-12.3-2.5-16.1 1.5-1.5 3.5-2.2 5.8-2.2 3.4 0 7.2 1.6 10.3 4.7 2.5 2.5 4.2 5.6 4.6 8.7.4 3-.4 5.7-2.1 7.4zM78 86.2V86c0-.1 0-.1-.1-.2 0-.1-.1-.1-.1-.2L75 82.4c-.2-.2-.4-.3-.7-.4-.3 0-.5.1-.7.3l-2.4 2.2L69 82c-.2-.2-.4-.3-.7-.4-.3 0-.5.1-.7.3l-2.4 2.2-2.2-2.4c-.2-.2-.4-.3-.7-.4-.3 0-.5.1-.8.3L58.9 84l-2.3-1.5c-.1-.1-.2-.1-.3-.1-.1 0-.2-.1-.4 0-.1 0-.3.1-.4.1l-.3.3c-.1.1-.1.2-.2.3v.3c0 7.8 4.7 16.6 11.5 16.6S78 94.4 78 86.4v-.2zM66.5 98c-4.5 0-8.7-5.8-9.4-12.7l1.3.8c.4.2.9.2 1.2-.1l2.4-2.2 2.1 2.5c.2.2.4.3.7.4.3 0 .5-.1.8-.3l2.4-2.2 2.1 2.5c.2.2.4.3.7.4.3 0 .5-.1.7-.3l2.4-2.2 1.9 2.2C75.9 93.4 72 98 66.5 98z"></path><path d="M21.5 76.4c0-6.8-8.7-11.5-16.6-11.5h-.3c-.1 0-.2.1-.3.2l-.3.3c-.1.1-.1.3-.1.4v.4c0 .1.1.2.1.3l1.5 2.3-2.4 2.6c-.2.2-.3.4-.3.7v.1c0 .3.1.5.4.7L5.7 75l-2.2 2.4c-.2.2-.3.4-.3.7v.1c0 .3.1.5.4.7L6.1 81l-2.2 2.4c-.2.2-.3.4-.3.7v.1c0 .3.1.5.4.7l3.3 2.8.1.1c.1 0 .1.1.2.1H7.9c8 0 13.6-4.7 13.6-11.5zM8.3 85.9L6 84l2.2-2.4c.2-.2.3-.4.3-.7v-.1c0-.3-.1-.5-.4-.7L5.7 78l2.2-2.4c.2-.2.3-.4.3-.7v-.1c0-.3-.1-.5-.4-.7L5.3 72l2.2-2.4c.2-.2.3-.4.3-.7 0-.2-.1-.4-.2-.5L6.8 67c6.8.7 12.7 4.8 12.7 9.4 0 5.5-4.6 9.3-11.2 9.5z"></path></g><!----><g data-v-423bf9ae="" id="f5e0bacb-f2df-4001-a2c2-f0578d69f465" fill="black" transform="matrix(0.4696346369258203,0,0,0.4696346369258203,64.98011522417659,225.62446024485428)"><path d="M2.04 16.24L2.04 16.24Q1.37 16.04 1.11 15.85Q0.85 15.65 0.85 15.36L0.85 15.36Q0.85 15.13 0.98 14.73Q1.11 14.32 1.35 13.77Q1.60 13.22 1.94 12.54Q2.28 11.87 2.72 11.10L2.72 11.10Q2.35 11.09 2.06 11.08Q1.78 11.07 1.60 11.07L1.60 11.07Q1.68 10.86 2.07 10.71Q2.46 10.56 3.11 10.44L3.11 10.44Q3.65 9.53 4.28 8.71Q4.90 7.88 5.53 7.19Q6.16 6.50 6.79 5.97Q7.42 5.45 7.99 5.14L7.99 5.14Q8.01 5.04 8.02 4.97Q8.02 4.90 8.02 4.87L8.02 4.87Q8.22 4.87 8.55 4.97Q8.88 5.07 9.19 5.21Q9.51 5.35 9.75 5.49Q10.00 5.64 10.02 5.74L10.02 5.74Q9.56 6.55 9.11 8.17Q8.67 9.79 8.37 12.04L8.37 12.04Q8.30 12.60 8.25 13.31Q8.20 14.03 8.20 14.91L8.20 14.91Q8.20 15.22 8.20 15.54Q8.20 15.86 8.23 16.21L8.23 16.21Q8.20 16.23 8.18 16.23Q8.15 16.23 8.06 16.23L8.06 16.23Q7.87 16.23 7.61 16.16Q7.35 16.10 7.11 16.01Q6.86 15.92 6.69 15.81Q6.51 15.69 6.47 15.61L6.47 15.61Q6.45 15.43 6.45 15.25Q6.45 15.08 6.45 14.88L6.45 14.88Q6.45 14.01 6.52 13.12Q6.58 12.22 6.73 11.27L6.73 11.27Q6.54 11.26 6.22 11.23Q5.89 11.21 5.50 11.20Q5.10 11.19 4.64 11.16Q4.19 11.14 3.75 11.13L3.75 11.13Q3.42 11.76 3.12 12.38Q2.83 13.01 2.62 13.64L2.62 13.64Q2.38 14.31 2.23 14.98Q2.09 15.65 2.04 16.24ZM7.45 7.83L7.45 7.83Q7.50 7.63 7.58 7.29Q7.66 6.94 7.73 6.57L7.73 6.57Q7.38 6.69 6.95 7.03Q6.52 7.36 6.07 7.86Q5.61 8.36 5.15 8.98Q4.68 9.60 4.24 10.30L4.24 10.30Q5.42 10.21 6.92 10.18L6.92 10.18Q7.03 9.59 7.16 9.01Q7.29 8.43 7.45 7.83ZM33.60 9.34L33.60 9.34Q34.05 9.34 34.31 9.59Q34.57 9.84 34.57 10.29L34.57 10.29Q34.57 10.40 34.55 10.52Q34.54 10.64 34.50 10.72L34.50 10.72Q34.31 10.70 34.09 10.68Q33.87 10.65 33.56 10.65L33.56 10.65Q32.93 10.65 32.30 10.77Q31.67 10.88 31.09 10.95L31.09 10.95Q30.46 12.43 30.06 13.73Q29.65 15.04 29.43 16.31L29.43 16.31Q28.95 16.20 28.59 15.90Q28.22 15.61 27.90 15.08L27.90 15.08Q28 14.85 28.14 14.54Q28.28 14.22 28.48 13.74Q28.67 13.26 28.95 12.56Q29.22 11.87 29.60 10.91L29.60 10.91Q29.01 10.71 28.83 10.22L28.83 10.22Q28.90 10.15 29.22 10.06Q29.54 9.97 30.00 9.86L30.00 9.86Q30.21 9.31 30.37 8.88Q30.52 8.46 30.65 8.07Q30.77 7.69 30.88 7.32Q30.98 6.94 31.07 6.52L31.07 6.52L31.00 6.52Q30.46 6.52 30.14 6.27Q29.81 6.02 29.81 5.61L29.81 5.61Q29.81 5.50 29.84 5.35Q29.88 5.19 29.93 5.08L29.93 5.08Q30.20 5.12 30.46 5.14Q30.72 5.15 31.14 5.15L31.14 5.15Q32.02 5.15 32.79 5.10Q33.56 5.05 34.18 5.00Q34.80 4.94 35.25 4.89Q35.70 4.84 35.94 4.84L35.94 4.84Q36.26 4.84 36.51 5.18Q36.76 5.52 36.90 6.13L36.90 6.13Q36.46 6.09 36.18 6.08Q35.91 6.06 35.70 6.06L35.70 6.06Q34.99 6.06 34.39 6.13Q33.80 6.19 33.26 6.27L33.26 6.27Q33.18 6.40 33.08 6.59Q32.97 6.79 32.80 7.15Q32.63 7.50 32.38 8.08Q32.12 8.65 31.72 9.53L31.72 9.53Q32.27 9.45 32.77 9.39Q33.26 9.34 33.60 9.34ZM48.90 4.98L48.90 4.98Q49.17 5.10 49.45 5.27Q49.73 5.45 49.97 5.63Q50.20 5.81 50.36 5.98Q50.53 6.16 50.54 6.27L50.54 6.27Q50.30 6.22 50.06 6.20Q49.83 6.17 49.63 6.17L49.63 6.17Q49 6.17 48.38 6.48Q47.75 6.79 47.19 7.32Q46.63 7.85 46.16 8.57Q45.68 9.28 45.34 10.09Q45.00 10.91 44.80 11.77Q44.60 12.64 44.60 13.48L44.60 13.48Q44.60 14.57 44.97 15.11Q45.33 15.64 46.03 15.64L46.03 15.64Q46.37 15.64 46.76 15.51Q47.15 15.37 47.56 15.13Q47.96 14.90 48.36 14.56Q48.75 14.22 49.08 13.82L49.08 13.82Q49.57 13.23 49.97 12.48Q50.36 11.73 50.63 10.89Q50.90 10.05 51.05 9.16Q51.20 8.27 51.20 7.42L51.20 7.42Q51.20 7.08 51.18 6.85Q51.17 6.62 51.15 6.46Q51.13 6.30 51.11 6.20Q51.10 6.10 51.09 6.03L51.09 6.03Q51.25 6.12 51.46 6.24Q51.66 6.36 51.84 6.59Q52.01 6.82 52.13 7.20Q52.25 7.57 52.25 8.18L52.25 8.18Q52.25 9.16 52.02 10.10Q51.79 11.05 51.37 11.90Q50.96 12.75 50.40 13.50Q49.84 14.24 49.20 14.80L49.20 14.80Q48.36 15.54 47.40 15.95Q46.45 16.35 45.57 16.35L45.57 16.35Q44.28 16.35 43.60 15.53Q42.92 14.71 42.92 13.12L42.92 13.12Q42.92 12.26 43.11 11.31Q43.30 10.36 43.64 9.44Q43.99 8.51 44.46 7.68Q44.94 6.85 45.51 6.21Q46.07 5.57 46.73 5.19Q47.38 4.82 48.06 4.82L48.06 4.82Q48.29 4.82 48.48 4.85Q48.68 4.89 48.90 4.98ZM64.95 5.75L64.95 5.75Q64.33 6.58 63.83 7.57Q63.32 8.57 62.96 9.61Q62.61 10.65 62.42 11.67Q62.23 12.68 62.23 13.57L62.23 13.57Q62.23 14.66 62.55 15.15Q62.87 15.64 63.66 15.64L63.66 15.64Q64.57 15.64 65.25 15.00Q65.94 14.36 66.54 13.24L66.54 13.24Q66.93 12.52 67.21 11.65Q67.49 10.78 67.67 9.86Q67.84 8.95 67.93 8.02Q68.01 7.08 68.01 6.23L68.01 6.23Q68.01 5.68 68.00 5.43Q67.98 5.18 67.96 5.03L67.96 5.03Q68.00 5.03 68.17 5.05Q68.33 5.08 68.55 5.12Q68.77 5.17 68.98 5.24Q69.20 5.31 69.36 5.39L69.36 5.39Q69.29 6.45 69.10 7.59Q68.91 8.72 68.60 9.83Q68.29 10.93 67.89 11.96Q67.48 12.98 66.98 13.79L66.98 13.79Q66.23 14.99 65.31 15.67Q64.39 16.35 63.13 16.35L63.13 16.35Q61.84 16.35 61.12 15.60Q60.41 14.85 60.41 13.33L60.41 13.33Q60.41 12.45 60.61 11.33Q60.80 10.22 61.13 9.07Q61.46 7.91 61.89 6.81Q62.33 5.71 62.80 4.84L62.80 4.84Q63.04 4.86 63.36 4.94Q63.69 5.03 63.99 5.16Q64.30 5.29 64.56 5.45Q64.82 5.61 64.95 5.75ZM77.57 16.24L77.57 16.24Q76.78 16.00 76.50 15.79Q76.22 15.57 76.22 15.19L76.22 15.19Q76.22 14.77 76.41 14.01Q76.61 13.24 76.92 12.31Q77.24 11.37 77.64 10.35Q78.05 9.32 78.47 8.39Q78.89 7.45 79.29 6.67Q79.69 5.89 80.00 5.46L80.00 5.46L79.90 4.87Q80.09 4.87 80.44 4.97Q80.79 5.07 81.15 5.21Q81.51 5.35 81.78 5.49Q82.05 5.64 82.08 5.74L82.08 5.74Q82.01 6.08 81.97 6.76Q81.93 7.43 81.93 8.20L81.93 8.20Q81.93 9.73 82.05 11.19Q82.17 12.66 82.60 14.17L82.60 14.17Q82.82 13.05 83.08 11.94Q83.34 10.82 83.62 9.81Q83.90 8.79 84.18 7.92Q84.46 7.06 84.72 6.40Q84.98 5.75 85.20 5.38Q85.43 5.01 85.61 4.98L85.61 4.98Q85.76 5.01 85.95 5.10Q86.13 5.19 86.30 5.32Q86.46 5.45 86.60 5.60Q86.74 5.75 86.83 5.91L86.83 5.91Q86.38 6.09 85.94 6.76Q85.50 7.43 85.10 8.39Q84.70 9.35 84.36 10.47Q84.01 11.59 83.75 12.68Q83.50 13.76 83.35 14.69Q83.20 15.61 83.19 16.17L83.19 16.17Q83.19 16.20 83.20 16.21L83.20 16.21Q83.16 16.23 83.11 16.23Q83.06 16.23 83.02 16.23L83.02 16.23Q82.38 16.23 81.88 16.07Q81.38 15.90 81.23 15.61L81.23 15.61Q80.93 14.43 80.74 13.34Q80.54 12.25 80.41 11.16Q80.28 10.07 80.20 8.95Q80.12 7.84 80.08 6.62L80.08 6.62Q79.81 7.04 79.52 7.72Q79.23 8.40 78.95 9.21Q78.67 10.02 78.41 10.92Q78.15 11.82 77.95 12.67Q77.76 13.52 77.64 14.29Q77.53 15.05 77.53 15.61L77.53 15.61Q77.53 15.90 77.54 16.03Q77.55 16.16 77.57 16.24ZM93.83 14.45L93.83 14.45Q94.04 13.99 94.33 13.26Q94.63 12.53 94.95 11.68Q95.27 10.84 95.61 9.95Q95.94 9.06 96.24 8.26Q96.53 7.46 96.75 6.83Q96.96 6.20 97.06 5.87L97.06 5.87Q96.18 6.23 95.55 6.97Q94.92 7.71 94.60 8.83L94.60 8.83Q94.28 8.72 94.01 8.43Q93.74 8.15 93.66 7.71L93.66 7.71Q93.80 7.07 94.19 6.54Q94.57 6.01 95.16 5.63Q95.75 5.25 96.52 5.05Q97.29 4.84 98.17 4.84L98.17 4.84Q99.29 4.84 100.23 5.17Q101.16 5.50 101.84 6.09Q102.51 6.68 102.89 7.50Q103.26 8.33 103.26 9.34L103.26 9.34Q103.26 10.71 102.76 11.96Q102.26 13.20 101.39 14.15Q100.53 15.11 99.40 15.67Q98.27 16.24 97.02 16.24L97.02 16.24Q95.87 16.24 95.05 15.79Q94.23 15.33 93.83 14.45ZM98.77 5.54L98.77 5.54Q98.07 5.54 97.44 5.74L97.44 5.74Q98.06 5.96 98.46 6.21Q98.87 6.45 99.02 6.59L99.02 6.59Q98.91 6.75 98.69 7.14Q98.48 7.53 98.19 8.09Q97.90 8.65 97.58 9.32Q97.26 9.98 96.95 10.68L96.95 10.68Q96.15 12.46 95.80 13.48Q95.44 14.50 95.44 14.90L95.44 14.90Q95.63 14.97 95.91 14.99Q96.19 15.02 96.52 15.02L96.52 15.02Q97.65 15.02 98.66 14.50Q99.68 13.97 100.44 13.09Q101.21 12.21 101.65 11.04Q102.09 9.87 102.09 8.58L102.09 8.58Q102.09 7.14 101.19 6.34Q100.30 5.54 98.77 5.54ZM111.41 16.24L111.41 16.24Q110.74 16.04 110.48 15.85Q110.22 15.65 110.22 15.36L110.22 15.36Q110.22 15.13 110.35 14.73Q110.47 14.32 110.72 13.77Q110.96 13.22 111.31 12.54Q111.65 11.87 112.08 11.10L112.08 11.10Q111.72 11.09 111.43 11.08Q111.15 11.07 110.96 11.07L110.96 11.07Q111.05 10.86 111.44 10.71Q111.83 10.56 112.48 10.44L112.48 10.44Q113.02 9.53 113.64 8.71Q114.27 7.88 114.90 7.19Q115.53 6.50 116.16 5.97Q116.79 5.45 117.36 5.14L117.36 5.14Q117.38 5.04 117.38 4.97Q117.39 4.90 117.39 4.87L117.39 4.87Q117.59 4.87 117.91 4.97Q118.24 5.07 118.56 5.21Q118.87 5.35 119.12 5.49Q119.36 5.64 119.39 5.74L119.39 5.74Q118.93 6.55 118.48 8.17Q118.03 9.79 117.74 12.04L117.74 12.04Q117.67 12.60 117.62 13.31Q117.57 14.03 117.57 14.91L117.57 14.91Q117.57 15.22 117.57 15.54Q117.57 15.86 117.60 16.21L117.60 16.21Q117.57 16.23 117.54 16.23Q117.52 16.23 117.43 16.23L117.43 16.23Q117.24 16.23 116.98 16.16Q116.72 16.10 116.47 16.01Q116.23 15.92 116.05 15.81Q115.88 15.69 115.84 15.61L115.84 15.61Q115.82 15.43 115.82 15.25Q115.82 15.08 115.82 14.88L115.82 14.88Q115.82 14.01 115.88 13.12Q115.95 12.22 116.10 11.27L116.10 11.27Q115.91 11.26 115.58 11.23Q115.26 11.21 114.86 11.20Q114.46 11.19 114.01 11.16Q113.55 11.14 113.12 11.13L113.12 11.13Q112.78 11.76 112.49 12.38Q112.20 13.01 111.99 13.64L111.99 13.64Q111.75 14.31 111.60 14.98Q111.45 15.65 111.41 16.24ZM116.82 7.83L116.82 7.83Q116.87 7.63 116.95 7.29Q117.03 6.94 117.10 6.57L117.10 6.57Q116.75 6.69 116.32 7.03Q115.89 7.36 115.44 7.86Q114.98 8.36 114.51 8.98Q114.04 9.60 113.61 10.30L113.61 10.30Q114.79 10.21 116.28 10.18L116.28 10.18Q116.40 9.59 116.53 9.01Q116.66 8.43 116.82 7.83ZM128.97 6.69L128.97 6.69Q128.41 6.69 128.11 6.38Q127.81 6.06 127.81 5.61L127.81 5.61Q127.81 5.50 127.84 5.35Q127.88 5.19 127.93 5.08L127.93 5.08Q128.11 5.17 128.47 5.20Q128.83 5.24 129.30 5.24L129.30 5.24Q130.02 5.24 130.92 5.17Q131.82 5.11 132.65 5.04Q133.48 4.97 134.11 4.91Q134.74 4.84 134.92 4.84L134.92 4.84Q135.44 4.84 135.67 5.23Q135.90 5.61 136.01 6.26L136.01 6.26Q135.65 6.23 135.29 6.21Q134.93 6.19 134.68 6.19L134.68 6.19Q134.23 6.19 133.78 6.22Q133.32 6.24 132.86 6.30L132.86 6.30Q132.66 6.71 132.43 7.26Q132.19 7.81 131.96 8.41Q131.73 9.02 131.52 9.61Q131.31 10.21 131.15 10.68L131.15 10.68Q130.84 11.61 130.61 12.39Q130.38 13.17 130.21 13.85Q130.03 14.53 129.91 15.15Q129.78 15.76 129.68 16.35L129.68 16.35Q128.74 16.21 128.11 15.18L128.11 15.18Q128.23 14.74 128.39 14.23Q128.55 13.72 128.76 13.07Q128.98 12.42 129.28 11.59Q129.57 10.77 129.95 9.72L129.95 9.72Q130.09 9.32 130.24 8.90Q130.40 8.47 130.54 8.05Q130.69 7.63 130.81 7.24Q130.93 6.85 131.01 6.52L131.01 6.52Q130.42 6.59 129.90 6.64Q129.37 6.69 128.97 6.69ZM141.85 14.38L141.85 14.38Q141.85 13.87 142.01 13.07Q142.17 12.26 142.43 11.33Q142.69 10.40 143.02 9.43Q143.36 8.46 143.71 7.60Q144.06 6.75 144.40 6.10Q144.73 5.46 145.00 5.18L145.00 5.18Q145.14 5.19 145.37 5.29Q145.60 5.38 145.84 5.50Q146.08 5.63 146.27 5.78Q146.47 5.92 146.52 6.05L146.52 6.05Q146.12 6.41 145.72 7.15Q145.32 7.88 144.95 8.82Q144.58 9.76 144.26 10.80Q143.93 11.84 143.70 12.82Q143.46 13.80 143.33 14.64Q143.19 15.48 143.19 16.00L143.19 16.00Q143.19 16.24 143.23 16.30L143.23 16.30Q142.93 16.28 142.79 16.19Q142.65 16.10 142.57 16.00Q142.49 15.89 142.43 15.79Q142.37 15.68 142.24 15.62L142.24 15.62Q142.14 15.58 142.07 15.43Q142.00 15.27 141.95 15.09Q141.90 14.90 141.88 14.70Q141.85 14.50 141.85 14.38ZM159.29 4.98L159.29 4.98Q159.56 5.10 159.84 5.27Q160.12 5.45 160.36 5.63Q160.59 5.81 160.75 5.98Q160.92 6.16 160.93 6.27L160.93 6.27Q160.69 6.22 160.45 6.20Q160.22 6.17 160.02 6.17L160.02 6.17Q159.39 6.17 158.77 6.48Q158.14 6.79 157.58 7.32Q157.02 7.85 156.55 8.57Q156.07 9.28 155.73 10.09Q155.39 10.91 155.19 11.77Q154.99 12.64 154.99 13.48L154.99 13.48Q154.99 14.57 155.36 15.11Q155.72 15.64 156.42 15.64L156.42 15.64Q156.76 15.64 157.15 15.51Q157.54 15.37 157.95 15.13Q158.35 14.90 158.75 14.56Q159.14 14.22 159.47 13.82L159.47 13.82Q159.96 13.23 160.36 12.48Q160.75 11.73 161.02 10.89Q161.29 10.05 161.44 9.16Q161.59 8.27 161.59 7.42L161.59 7.42Q161.59 7.08 161.57 6.85Q161.56 6.62 161.54 6.46Q161.52 6.30 161.50 6.20Q161.49 6.10 161.48 6.03L161.48 6.03Q161.64 6.12 161.85 6.24Q162.05 6.36 162.22 6.59Q162.40 6.82 162.52 7.20Q162.64 7.57 162.64 8.18L162.64 8.18Q162.64 9.16 162.41 10.10Q162.18 11.05 161.76 11.90Q161.35 12.75 160.79 13.50Q160.23 14.24 159.59 14.80L159.59 14.80Q158.75 15.54 157.79 15.95Q156.84 16.35 155.96 16.35L155.96 16.35Q154.67 16.35 153.99 15.53Q153.31 14.71 153.31 13.12L153.31 13.12Q153.31 12.26 153.50 11.31Q153.69 10.36 154.03 9.44Q154.38 8.51 154.85 7.68Q155.33 6.85 155.90 6.21Q156.46 5.57 157.12 5.19Q157.77 4.82 158.45 4.82L158.45 4.82Q158.68 4.82 158.87 4.85Q159.07 4.89 159.29 4.98ZM171.21 16.24L171.21 16.24Q170.41 16.00 170.13 15.79Q169.85 15.57 169.85 15.19L169.85 15.19Q169.85 14.77 170.04 14.01Q170.24 13.24 170.55 12.31Q170.87 11.37 171.28 10.35Q171.68 9.32 172.10 8.39Q172.52 7.45 172.92 6.67Q173.32 5.89 173.63 5.46L173.63 5.46L173.53 4.87Q173.73 4.87 174.08 4.97Q174.43 5.07 174.78 5.21Q175.14 5.35 175.41 5.49Q175.69 5.64 175.71 5.74L175.71 5.74Q175.64 6.08 175.60 6.76Q175.56 7.43 175.56 8.20L175.56 8.20Q175.56 9.73 175.68 11.19Q175.80 12.66 176.23 14.17L176.23 14.17Q176.46 13.05 176.72 11.94Q176.97 10.82 177.25 9.81Q177.53 8.79 177.81 7.92Q178.09 7.06 178.35 6.40Q178.61 5.75 178.84 5.38Q179.06 5.01 179.24 4.98L179.24 4.98Q179.40 5.01 179.58 5.10Q179.76 5.19 179.93 5.32Q180.10 5.45 180.24 5.60Q180.38 5.75 180.46 5.91L180.46 5.91Q180.01 6.09 179.57 6.76Q179.13 7.43 178.73 8.39Q178.33 9.35 177.99 10.47Q177.65 11.59 177.39 12.68Q177.13 13.76 176.98 14.69Q176.83 15.61 176.82 16.17L176.82 16.17Q176.82 16.20 176.83 16.21L176.83 16.21Q176.79 16.23 176.74 16.23Q176.69 16.23 176.65 16.23L176.65 16.23Q176.01 16.23 175.51 16.07Q175.01 15.90 174.86 15.61L174.86 15.61Q174.57 14.43 174.37 13.34Q174.17 12.25 174.04 11.16Q173.91 10.07 173.83 8.95Q173.75 7.84 173.71 6.62L173.71 6.62Q173.45 7.04 173.15 7.72Q172.86 8.40 172.58 9.21Q172.30 10.02 172.04 10.92Q171.78 11.82 171.58 12.67Q171.39 13.52 171.28 14.29Q171.16 15.05 171.16 15.61L171.16 15.61Q171.16 15.90 171.17 16.03Q171.18 16.16 171.21 16.24ZM202.72 9.34L202.72 9.34Q203.17 9.34 203.43 9.59Q203.69 9.84 203.69 10.29L203.69 10.29Q203.69 10.40 203.67 10.52Q203.66 10.64 203.62 10.72L203.62 10.72Q203.43 10.70 203.21 10.68Q202.99 10.65 202.68 10.65L202.68 10.65Q202.05 10.65 201.42 10.77Q200.79 10.88 200.21 10.95L200.21 10.95Q199.58 12.43 199.18 13.73Q198.77 15.04 198.55 16.31L198.55 16.31Q198.07 16.20 197.71 15.90Q197.34 15.61 197.02 15.08L197.02 15.08Q197.12 14.85 197.26 14.54Q197.40 14.22 197.60 13.74Q197.79 13.26 198.06 12.56Q198.34 11.87 198.72 10.91L198.72 10.91Q198.13 10.71 197.95 10.22L197.95 10.22Q198.02 10.15 198.34 10.06Q198.66 9.97 199.12 9.86L199.12 9.86Q199.33 9.31 199.49 8.88Q199.64 8.46 199.77 8.07Q199.89 7.69 200.00 7.32Q200.10 6.94 200.19 6.52L200.19 6.52L200.12 6.52Q199.58 6.52 199.25 6.27Q198.93 6.02 198.93 5.61L198.93 5.61Q198.93 5.50 198.96 5.35Q199.00 5.19 199.05 5.08L199.05 5.08Q199.32 5.12 199.58 5.14Q199.84 5.15 200.26 5.15L200.26 5.15Q201.14 5.15 201.91 5.10Q202.68 5.05 203.30 5.00Q203.92 4.94 204.37 4.89Q204.82 4.84 205.06 4.84L205.06 4.84Q205.38 4.84 205.63 5.18Q205.88 5.52 206.02 6.13L206.02 6.13Q205.58 6.09 205.30 6.08Q205.03 6.06 204.82 6.06L204.82 6.06Q204.11 6.06 203.51 6.13Q202.92 6.19 202.38 6.27L202.38 6.27Q202.30 6.40 202.19 6.59Q202.09 6.79 201.92 7.15Q201.75 7.50 201.50 8.08Q201.24 8.65 200.84 9.53L200.84 9.53Q201.39 9.45 201.89 9.39Q202.38 9.34 202.72 9.34ZM218.02 4.98L218.02 4.98Q218.29 5.10 218.57 5.27Q218.85 5.45 219.09 5.63Q219.32 5.81 219.48 5.98Q219.65 6.16 219.66 6.27L219.66 6.27Q219.42 6.22 219.18 6.20Q218.95 6.17 218.75 6.17L218.75 6.17Q218.12 6.17 217.50 6.48Q216.87 6.79 216.31 7.32Q215.75 7.85 215.28 8.57Q214.80 9.28 214.46 10.09Q214.12 10.91 213.92 11.77Q213.72 12.64 213.72 13.48L213.72 13.48Q213.72 14.57 214.09 15.11Q214.45 15.64 215.15 15.64L215.15 15.64Q215.49 15.64 215.88 15.51Q216.27 15.37 216.68 15.13Q217.08 14.90 217.48 14.56Q217.87 14.22 218.20 13.82L218.20 13.82Q218.69 13.23 219.09 12.48Q219.48 11.73 219.75 10.89Q220.02 10.05 220.17 9.16Q220.32 8.27 220.32 7.42L220.32 7.42Q220.32 7.08 220.30 6.85Q220.29 6.62 220.27 6.46Q220.25 6.30 220.23 6.20Q220.22 6.10 220.21 6.03L220.21 6.03Q220.37 6.12 220.58 6.24Q220.78 6.36 220.95 6.59Q221.13 6.82 221.25 7.20Q221.37 7.57 221.37 8.18L221.37 8.18Q221.37 9.16 221.14 10.10Q220.91 11.05 220.49 11.90Q220.08 12.75 219.52 13.50Q218.96 14.24 218.32 14.80L218.32 14.80Q217.48 15.54 216.52 15.95Q215.57 16.35 214.69 16.35L214.69 16.35Q213.40 16.35 212.72 15.53Q212.04 14.71 212.04 13.12L212.04 13.12Q212.04 12.26 212.23 11.31Q212.42 10.36 212.76 9.44Q213.11 8.51 213.58 7.68Q214.06 6.85 214.63 6.21Q215.19 5.57 215.84 5.19Q216.50 4.82 217.18 4.82L217.18 4.82Q217.41 4.82 217.60 4.85Q217.80 4.89 218.02 4.98ZM238.21 7.46L238.21 7.46Q238.21 8.13 237.91 8.73Q237.61 9.32 237.08 9.79Q236.54 10.26 235.83 10.58Q235.12 10.91 234.28 11.02L234.28 11.02Q234.49 11.65 234.79 12.31Q235.09 12.98 235.44 13.59Q235.79 14.21 236.17 14.73Q236.54 15.25 236.91 15.58L236.91 15.58Q236.84 15.72 236.71 15.86Q236.57 16.00 236.40 16.12Q236.22 16.24 236.03 16.32Q235.84 16.39 235.68 16.39L235.68 16.39Q235.37 16.39 235.09 16.10Q234.81 15.81 234.52 15.17Q234.23 14.53 233.92 13.52Q233.60 12.50 233.23 11.07L233.23 11.07Q233.07 11.07 232.92 11.07Q232.76 11.07 232.68 11.05L232.68 11.05Q232.58 10.99 232.47 10.85L232.47 10.85Q232.09 11.66 231.80 12.38Q231.50 13.09 231.27 13.76Q231.04 14.42 230.87 15.04Q230.69 15.67 230.57 16.31L230.57 16.31Q230.09 16.20 229.74 15.90Q229.39 15.61 229.08 15.08L229.08 15.08Q229.14 14.95 229.20 14.83Q229.26 14.71 229.36 14.50Q229.46 14.28 229.61 13.94Q229.75 13.61 230.00 13.05Q230.24 12.49 230.59 11.68Q230.93 10.86 231.42 9.70L231.42 9.70Q231.64 9.18 231.81 8.79Q231.97 8.40 232.09 8.04Q232.22 7.69 232.32 7.33Q232.43 6.97 232.54 6.51L232.54 6.51Q231.90 6.73 231.34 7.01Q230.79 7.28 230.43 7.59L230.43 7.59Q230.30 7.50 230.17 7.34Q230.03 7.17 229.92 6.96Q229.81 6.76 229.73 6.55Q229.64 6.34 229.63 6.17L229.63 6.17Q230.05 5.89 230.66 5.66Q231.27 5.42 231.95 5.24Q232.64 5.07 233.35 4.97Q234.07 4.87 234.68 4.87L234.68 4.87Q236.36 4.87 237.29 5.56Q238.21 6.26 238.21 7.46ZM234.63 6.02L234.79 6.29Q234.70 6.41 234.49 6.79Q234.28 7.17 234.00 7.69Q233.73 8.22 233.43 8.83Q233.13 9.45 232.85 10.05L232.85 10.05Q233.90 10.05 234.78 9.86Q235.66 9.66 236.31 9.30Q236.95 8.95 237.31 8.46Q237.66 7.98 237.66 7.39L237.66 7.39Q237.66 6.69 237.16 6.32Q236.66 5.95 235.61 5.95L235.61 5.95Q235.37 5.95 235.13 5.97Q234.89 5.99 234.63 6.02L234.63 6.02ZM256.27 12.43L256.27 12.43Q256.27 11.45 256.50 10.51Q256.73 9.56 257.15 8.71Q257.57 7.87 258.15 7.16Q258.73 6.45 259.43 5.94Q260.12 5.42 260.90 5.13Q261.69 4.84 262.51 4.84L262.51 4.84Q263.48 4.84 264.02 5.25Q264.56 5.66 264.56 6.38L264.56 6.38Q264.56 6.66 264.48 6.96Q264.40 7.25 264.26 7.54Q264.11 7.83 263.91 8.09Q263.72 8.36 263.48 8.55L263.48 8.55Q263.12 8.50 262.85 8.22Q262.58 7.95 262.51 7.59L262.51 7.59Q263.00 7.18 263.29 6.74Q263.58 6.30 263.58 5.94L263.58 5.94Q263.58 5.32 262.81 5.32L262.81 5.32Q262.49 5.32 262.14 5.45Q261.80 5.59 261.45 5.82Q261.10 6.06 260.77 6.40Q260.44 6.73 260.16 7.14L260.16 7.14Q258.22 9.94 258.22 12.87L258.22 12.87Q258.22 13.90 258.54 14.53Q258.86 15.16 259.39 15.27L259.39 15.27Q259.99 15.13 260.92 14.50Q261.84 13.87 262.93 12.87L262.93 12.87Q263.07 13.01 263.10 13.16L263.10 13.16Q262.70 13.69 262.26 14.18Q261.83 14.67 261.40 15.08Q260.97 15.48 260.56 15.79Q260.15 16.10 259.80 16.27L259.80 16.27Q258.06 16.24 257.17 15.27Q256.27 14.31 256.27 12.43ZM277.61 4.98L277.61 4.98Q277.87 5.10 278.15 5.27Q278.43 5.45 278.67 5.63Q278.91 5.81 279.07 5.98Q279.23 6.16 279.24 6.27L279.24 6.27Q279.01 6.22 278.77 6.20Q278.53 6.17 278.33 6.17L278.33 6.17Q277.70 6.17 277.08 6.48Q276.46 6.79 275.90 7.32Q275.34 7.85 274.86 8.57Q274.39 9.28 274.04 10.09Q273.70 10.91 273.50 11.77Q273.31 12.64 273.31 13.48L273.31 13.48Q273.31 14.57 273.67 15.11Q274.04 15.64 274.74 15.64L274.74 15.64Q275.07 15.64 275.46 15.51Q275.86 15.37 276.26 15.13Q276.67 14.90 277.06 14.56Q277.45 14.22 277.79 13.82L277.79 13.82Q278.28 13.23 278.67 12.48Q279.06 11.73 279.33 10.89Q279.61 10.05 279.75 9.16Q279.90 8.27 279.90 7.42L279.90 7.42Q279.90 7.08 279.89 6.85Q279.87 6.62 279.85 6.46Q279.83 6.30 279.82 6.20Q279.80 6.10 279.79 6.03L279.79 6.03Q279.96 6.12 280.16 6.24Q280.36 6.36 280.54 6.59Q280.71 6.82 280.83 7.20Q280.95 7.57 280.95 8.18L280.95 8.18Q280.95 9.16 280.72 10.10Q280.49 11.05 280.08 11.90Q279.66 12.75 279.10 13.50Q278.54 14.24 277.90 14.80L277.90 14.80Q277.06 15.54 276.11 15.95Q275.16 16.35 274.27 16.35L274.27 16.35Q272.99 16.35 272.31 15.53Q271.63 14.71 271.63 13.12L271.63 13.12Q271.63 12.26 271.82 11.31Q272.01 10.36 272.35 9.44Q272.69 8.51 273.17 7.68Q273.64 6.85 274.21 6.21Q274.78 5.57 275.43 5.19Q276.08 4.82 276.77 4.82L276.77 4.82Q276.99 4.82 277.19 4.85Q277.38 4.89 277.61 4.98ZM289.52 16.24L289.52 16.24Q288.72 16.00 288.44 15.79Q288.16 15.57 288.16 15.19L288.16 15.19Q288.16 14.77 288.36 14.01Q288.55 13.24 288.87 12.31Q289.18 11.37 289.59 10.35Q290.00 9.32 290.42 8.39Q290.84 7.45 291.24 6.67Q291.63 5.89 291.94 5.46L291.94 5.46L291.84 4.87Q292.04 4.87 292.39 4.97Q292.74 5.07 293.10 5.21Q293.45 5.35 293.73 5.49Q294 5.64 294.03 5.74L294.03 5.74Q293.96 6.08 293.92 6.76Q293.87 7.43 293.87 8.20L293.87 8.20Q293.87 9.73 293.99 11.19Q294.11 12.66 294.55 14.17L294.55 14.17Q294.77 13.05 295.03 11.94Q295.29 10.82 295.57 9.81Q295.85 8.79 296.13 7.92Q296.41 7.06 296.67 6.40Q296.93 5.75 297.15 5.38Q297.37 5.01 297.56 4.98L297.56 4.98Q297.71 5.01 297.89 5.10Q298.07 5.19 298.24 5.32Q298.41 5.45 298.55 5.60Q298.69 5.75 298.77 5.91L298.77 5.91Q298.33 6.09 297.88 6.76Q297.44 7.43 297.05 8.39Q296.65 9.35 296.30 10.47Q295.96 11.59 295.70 12.68Q295.44 13.76 295.30 14.69Q295.15 15.61 295.13 16.17L295.13 16.17Q295.13 16.20 295.15 16.21L295.15 16.21Q295.11 16.23 295.06 16.23Q295.01 16.23 294.97 16.23L294.97 16.23Q294.32 16.23 293.82 16.07Q293.33 15.90 293.17 15.61L293.17 15.61Q292.88 14.43 292.68 13.34Q292.49 12.25 292.36 11.16Q292.22 10.07 292.15 8.95Q292.07 7.84 292.03 6.62L292.03 6.62Q291.76 7.04 291.47 7.72Q291.17 8.40 290.89 9.21Q290.61 10.02 290.35 10.92Q290.09 11.82 289.90 12.67Q289.70 13.52 289.59 14.29Q289.48 15.05 289.48 15.61L289.48 15.61Q289.48 15.90 289.49 16.03Q289.49 16.16 289.52 16.24ZM306.08 16.24L306.08 16.24Q305.28 16.00 305.00 15.79Q304.72 15.57 304.72 15.19L304.72 15.19Q304.72 14.77 304.92 14.01Q305.12 13.24 305.43 12.31Q305.75 11.37 306.15 10.35Q306.56 9.32 306.98 8.39Q307.40 7.45 307.80 6.67Q308.20 5.89 308.50 5.46L308.50 5.46L308.41 4.87Q308.60 4.87 308.95 4.97Q309.30 5.07 309.66 5.21Q310.02 5.35 310.29 5.49Q310.56 5.64 310.59 5.74L310.59 5.74Q310.52 6.08 310.48 6.76Q310.44 7.43 310.44 8.20L310.44 8.20Q310.44 9.73 310.56 11.19Q310.67 12.66 311.11 14.17L311.11 14.17Q311.33 13.05 311.59 11.94Q311.85 10.82 312.13 9.81Q312.41 8.79 312.69 7.92Q312.97 7.06 313.23 6.40Q313.49 5.75 313.71 5.38Q313.94 5.01 314.12 4.98L314.12 4.98Q314.27 5.01 314.45 5.10Q314.64 5.19 314.80 5.32Q314.97 5.45 315.11 5.60Q315.25 5.75 315.34 5.91L315.34 5.91Q314.89 6.09 314.45 6.76Q314.01 7.43 313.61 8.39Q313.21 9.35 312.87 10.47Q312.52 11.59 312.26 12.68Q312.00 13.76 311.86 14.69Q311.71 15.61 311.70 16.17L311.70 16.17Q311.70 16.20 311.71 16.21L311.71 16.21Q311.67 16.23 311.62 16.23Q311.57 16.23 311.53 16.23L311.53 16.23Q310.88 16.23 310.39 16.07Q309.89 15.90 309.74 15.61L309.74 15.61Q309.44 14.43 309.25 13.34Q309.05 12.25 308.92 11.16Q308.78 10.07 308.71 8.95Q308.63 7.84 308.59 6.62L308.59 6.62Q308.32 7.04 308.03 7.72Q307.73 8.40 307.45 9.21Q307.17 10.02 306.92 10.92Q306.66 11.82 306.46 12.67Q306.26 13.52 306.15 14.29Q306.04 15.05 306.04 15.61L306.04 15.61Q306.04 15.90 306.05 16.03Q306.05 16.16 306.08 16.24ZM327.18 9.21L327.18 9.21Q327.64 9.21 327.90 9.46Q328.16 9.72 328.16 10.16L328.16 10.16Q328.16 10.28 328.14 10.39Q328.12 10.51 328.09 10.60L328.09 10.60Q327.91 10.57 327.68 10.55Q327.46 10.53 327.15 10.53L327.15 10.53Q326.55 10.53 325.93 10.63Q325.32 10.74 324.76 10.81L324.76 10.81Q324.44 11.55 324.17 12.24Q323.90 12.94 323.72 13.51Q323.53 14.08 323.42 14.50Q323.32 14.92 323.30 15.13L323.30 15.13Q324.44 14.90 325.59 14.73Q326.75 14.56 328.02 14.48L328.02 14.48Q328.17 14.71 328.28 14.99Q328.38 15.27 328.38 15.60L328.38 15.60Q328.38 15.68 328.38 15.78Q328.38 15.88 328.36 15.97L328.36 15.97Q327.96 15.96 327.53 15.95Q327.10 15.95 326.40 15.95L326.40 15.95Q325.93 15.95 325.52 15.97Q325.11 15.99 324.69 16.03Q324.27 16.07 323.80 16.14Q323.33 16.21 322.74 16.31L322.74 16.31Q322.10 16.06 321.50 15.08L321.50 15.08Q321.73 14.57 322.16 13.54Q322.59 12.52 323.25 10.79L323.25 10.79Q322.62 10.60 322.42 10.09L322.42 10.09Q322.49 10.02 322.83 9.92Q323.16 9.81 323.65 9.70L323.65 9.70Q323.86 9.16 324.01 8.75Q324.16 8.34 324.27 7.99Q324.38 7.63 324.47 7.29Q324.56 6.94 324.65 6.54L324.65 6.54Q324.16 6.51 323.88 6.27Q323.60 6.02 323.60 5.63L323.60 5.63Q323.60 5.52 323.63 5.36Q323.67 5.21 323.71 5.10L323.71 5.10Q323.99 5.14 324.25 5.15Q324.51 5.17 324.93 5.17L324.93 5.17Q325.81 5.17 326.58 5.12Q327.35 5.07 327.97 5.01Q328.59 4.96 329.04 4.91Q329.49 4.86 329.73 4.86L329.73 4.86Q330.05 4.86 330.30 5.19Q330.55 5.53 330.68 6.15L330.68 6.15Q330.25 6.10 329.97 6.09Q329.70 6.08 329.49 6.08L329.49 6.08Q328.72 6.08 328.08 6.15Q327.45 6.23 326.86 6.31L326.86 6.31Q326.77 6.44 326.67 6.64Q326.56 6.83 326.40 7.18Q326.23 7.53 325.98 8.06Q325.74 8.60 325.39 9.39L325.39 9.39Q325.92 9.31 326.39 9.26Q326.86 9.21 327.18 9.21ZM337.36 12.43L337.36 12.43Q337.36 11.45 337.59 10.51Q337.82 9.56 338.24 8.71Q338.66 7.87 339.24 7.16Q339.82 6.45 340.52 5.94Q341.21 5.42 341.99 5.13Q342.78 4.84 343.60 4.84L343.60 4.84Q344.57 4.84 345.11 5.25Q345.65 5.66 345.65 6.38L345.65 6.38Q345.65 6.66 345.57 6.96Q345.49 7.25 345.35 7.54Q345.20 7.83 345.00 8.09Q344.81 8.36 344.57 8.55L344.57 8.55Q344.20 8.50 343.94 8.22Q343.67 7.95 343.60 7.59L343.60 7.59Q344.09 7.18 344.38 6.74Q344.67 6.30 344.67 5.94L344.67 5.94Q344.67 5.32 343.90 5.32L343.90 5.32Q343.57 5.32 343.23 5.45Q342.89 5.59 342.54 5.82Q342.19 6.06 341.86 6.40Q341.53 6.73 341.25 7.14L341.25 7.14Q339.30 9.94 339.30 12.87L339.30 12.87Q339.30 13.90 339.63 14.53Q339.95 15.16 340.48 15.27L340.48 15.27Q341.08 15.13 342.01 14.50Q342.93 13.87 344.02 12.87L344.02 12.87Q344.16 13.01 344.19 13.16L344.19 13.16Q343.78 13.69 343.35 14.18Q342.92 14.67 342.49 15.08Q342.06 15.48 341.65 15.79Q341.24 16.10 340.89 16.27L340.89 16.27Q339.15 16.24 338.25 15.27Q337.36 14.31 337.36 12.43ZM354.84 6.69L354.84 6.69Q354.28 6.69 353.98 6.38Q353.68 6.06 353.68 5.61L353.68 5.61Q353.68 5.50 353.72 5.35Q353.75 5.19 353.81 5.08L353.81 5.08Q353.99 5.17 354.35 5.20Q354.70 5.24 355.18 5.24L355.18 5.24Q355.89 5.24 356.80 5.17Q357.70 5.11 358.53 5.04Q359.35 4.97 359.98 4.91Q360.61 4.84 360.79 4.84L360.79 4.84Q361.31 4.84 361.54 5.23Q361.77 5.61 361.89 6.26L361.89 6.26Q361.52 6.23 361.17 6.21Q360.81 6.19 360.56 6.19L360.56 6.19Q360.11 6.19 359.65 6.22Q359.20 6.24 358.74 6.30L358.74 6.30Q358.54 6.71 358.30 7.26Q358.06 7.81 357.83 8.41Q357.60 9.02 357.39 9.61Q357.18 10.21 357.03 10.68L357.03 10.68Q356.72 11.61 356.49 12.39Q356.26 13.17 356.08 13.85Q355.91 14.53 355.78 15.15Q355.66 15.76 355.56 16.35L355.56 16.35Q354.62 16.21 353.99 15.18L353.99 15.18Q354.10 14.74 354.26 14.23Q354.42 13.72 354.64 13.07Q354.86 12.42 355.15 11.59Q355.45 10.77 355.82 9.72L355.82 9.72Q355.96 9.32 356.12 8.90Q356.27 8.47 356.42 8.05Q356.57 7.63 356.69 7.24Q356.80 6.85 356.89 6.52L356.89 6.52Q356.30 6.59 355.78 6.64Q355.25 6.69 354.84 6.69ZM367.72 14.38L367.72 14.38Q367.72 13.87 367.89 13.07Q368.05 12.26 368.31 11.33Q368.56 10.40 368.90 9.43Q369.24 8.46 369.59 7.60Q369.94 6.75 370.27 6.10Q370.61 5.46 370.87 5.18L370.87 5.18Q371.01 5.19 371.25 5.29Q371.48 5.38 371.71 5.50Q371.95 5.63 372.15 5.78Q372.34 5.92 372.40 6.05L372.40 6.05Q371.99 6.41 371.60 7.15Q371.20 7.88 370.83 8.82Q370.45 9.76 370.13 10.80Q369.81 11.84 369.57 12.82Q369.33 13.80 369.20 14.64Q369.07 15.48 369.07 16.00L369.07 16.00Q369.07 16.24 369.11 16.30L369.11 16.30Q368.80 16.28 368.66 16.19Q368.52 16.10 368.45 16.00Q368.37 15.89 368.31 15.79Q368.24 15.68 368.12 15.62L368.12 15.62Q368.02 15.58 367.95 15.43Q367.88 15.27 367.83 15.09Q367.78 14.90 367.75 14.70Q367.72 14.50 367.72 14.38ZM379.96 16.24L379.96 16.24Q379.16 16.00 378.88 15.79Q378.60 15.57 378.60 15.19L378.60 15.19Q378.60 14.77 378.80 14.01Q378.99 13.24 379.31 12.31Q379.62 11.37 380.03 10.35Q380.44 9.32 380.86 8.39Q381.28 7.45 381.68 6.67Q382.07 5.89 382.38 5.46L382.38 5.46L382.28 4.87Q382.48 4.87 382.83 4.97Q383.18 5.07 383.54 5.21Q383.89 5.35 384.17 5.49Q384.44 5.64 384.47 5.74L384.47 5.74Q384.40 6.08 384.36 6.76Q384.31 7.43 384.31 8.20L384.31 8.20Q384.31 9.73 384.43 11.19Q384.55 12.66 384.99 14.17L384.99 14.17Q385.21 13.05 385.47 11.94Q385.73 10.82 386.01 9.81Q386.29 8.79 386.57 7.92Q386.85 7.06 387.11 6.40Q387.37 5.75 387.59 5.38Q387.81 5.01 388.00 4.98L388.00 4.98Q388.15 5.01 388.33 5.10Q388.51 5.19 388.68 5.32Q388.85 5.45 388.99 5.60Q389.13 5.75 389.21 5.91L389.21 5.91Q388.77 6.09 388.33 6.76Q387.88 7.43 387.49 8.39Q387.09 9.35 386.74 10.47Q386.40 11.59 386.14 12.68Q385.88 13.76 385.74 14.69Q385.59 15.61 385.57 16.17L385.57 16.17Q385.57 16.20 385.59 16.21L385.59 16.21Q385.55 16.23 385.50 16.23Q385.45 16.23 385.41 16.23L385.41 16.23Q384.76 16.23 384.27 16.07Q383.77 15.90 383.61 15.61L383.61 15.61Q383.32 14.43 383.12 13.34Q382.93 12.25 382.80 11.16Q382.66 10.07 382.59 8.95Q382.51 7.84 382.47 6.62L382.47 6.62Q382.20 7.04 381.91 7.72Q381.61 8.40 381.33 9.21Q381.05 10.02 380.79 10.92Q380.53 11.82 380.34 12.67Q380.14 13.52 380.03 14.29Q379.92 15.05 379.92 15.61L379.92 15.61Q379.92 15.90 379.93 16.03Q379.93 16.16 379.96 16.24ZM403.03 10.72L403.03 10.72Q403.40 10.72 403.61 10.98Q403.82 11.23 403.82 11.68L403.82 11.68Q403.82 11.79 403.80 11.91Q403.79 12.03 403.76 12.11L403.76 12.11Q403.47 12.04 403.12 12.03L403.12 12.03Q403.03 12.64 402.67 13.32Q402.30 14 401.79 14.60Q401.27 15.19 400.65 15.64Q400.04 16.09 399.43 16.24L399.43 16.24Q397.56 16.20 396.70 15.27Q395.84 14.34 395.84 12.36L395.84 12.36Q395.84 10.92 396.37 9.57Q396.90 8.22 397.78 7.17Q398.66 6.12 399.81 5.48Q400.95 4.84 402.18 4.84L402.18 4.84Q403.14 4.84 403.68 5.25Q404.22 5.66 404.22 6.40L404.22 6.40Q404.22 6.89 403.99 7.31Q403.76 7.73 403.23 8.22L403.23 8.22Q402.91 8.12 402.67 7.88Q402.43 7.63 402.37 7.31L402.37 7.31Q402.85 6.96 403.05 6.66Q403.24 6.37 403.24 5.96L403.24 5.96Q403.24 5.32 402.47 5.32L402.47 5.32Q401.84 5.32 401.12 5.79Q400.40 6.26 399.67 7.14L399.67 7.14Q398.64 8.39 398.16 9.71Q397.68 11.03 397.68 12.68L397.68 12.68Q397.68 13.30 397.81 13.80Q397.94 14.31 398.15 14.69Q398.36 15.06 398.64 15.29Q398.93 15.51 399.27 15.54L399.27 15.54Q399.71 15.44 400.16 15.09Q400.61 14.73 400.98 14.25Q401.35 13.76 401.61 13.21Q401.87 12.66 401.93 12.15L401.93 12.15Q401.53 12.24 401.18 12.31Q400.82 12.39 400.50 12.39L400.50 12.39Q400.08 12.39 399.76 12.18Q399.45 11.97 399.34 11.61L399.34 11.61Q399.59 11.47 400.07 11.31Q400.55 11.16 401.10 11.03Q401.65 10.89 402.17 10.81Q402.70 10.72 403.03 10.72ZM431.24 7.63L431.24 7.63Q431.24 8.40 430.86 9.10Q430.47 9.80 429.82 10.32Q429.17 10.85 428.30 11.16Q427.42 11.47 426.44 11.47L426.44 11.47Q426.09 11.47 425.89 11.38Q425.68 11.28 425.43 11.02L425.43 11.02Q424.73 12.54 424.29 13.82Q423.85 15.11 423.60 16.31L423.60 16.31Q423.07 16.18 422.73 15.87Q422.39 15.55 422.11 15.08L422.11 15.08Q422.25 14.81 422.45 14.38Q422.65 13.94 422.93 13.31Q423.21 12.67 423.58 11.78Q423.95 10.89 424.45 9.70L424.45 9.70Q424.68 9.16 424.84 8.75Q425.01 8.34 425.14 7.99Q425.26 7.63 425.37 7.28Q425.47 6.93 425.59 6.51L425.59 6.51Q424.93 6.72 424.38 7Q423.82 7.28 423.46 7.59L423.46 7.59Q423.33 7.50 423.20 7.34Q423.07 7.17 422.95 6.96Q422.84 6.76 422.76 6.55Q422.67 6.34 422.66 6.17L422.66 6.17Q423.07 5.89 423.67 5.66Q424.27 5.42 424.96 5.24Q425.64 5.07 426.38 4.97Q427.11 4.87 427.78 4.87L427.78 4.87Q428.58 4.87 429.23 5.07Q429.87 5.28 430.32 5.64Q430.77 6.01 431.00 6.51Q431.24 7.01 431.24 7.63ZM428.75 5.95L428.75 5.95Q428.22 5.95 427.66 6.03L427.66 6.03L427.83 6.29Q427.69 6.47 427.48 6.83Q427.27 7.20 427.01 7.71Q426.76 8.22 426.46 8.85Q426.16 9.48 425.82 10.18L425.82 10.18Q426.92 10.18 427.81 9.97Q428.71 9.77 429.35 9.41Q429.98 9.06 430.34 8.58Q430.70 8.11 430.70 7.56L430.70 7.56Q430.70 6.83 430.21 6.39Q429.72 5.95 428.75 5.95ZM443.48 9.21L443.48 9.21Q443.94 9.21 444.20 9.46Q444.46 9.72 444.46 10.16L444.46 10.16Q444.46 10.28 444.44 10.39Q444.42 10.51 444.39 10.60L444.39 10.60Q444.21 10.57 443.98 10.55Q443.76 10.53 443.45 10.53L443.45 10.53Q442.85 10.53 442.23 10.63Q441.62 10.74 441.06 10.81L441.06 10.81Q440.73 11.55 440.47 12.24Q440.20 12.94 440.01 13.51Q439.82 14.08 439.72 14.50Q439.61 14.92 439.60 15.13L439.60 15.13Q440.73 14.90 441.89 14.73Q443.04 14.56 444.32 14.48L444.32 14.48Q444.47 14.71 444.58 14.99Q444.68 15.27 444.68 15.60L444.68 15.60Q444.68 15.68 444.68 15.78Q444.68 15.88 444.65 15.97L444.65 15.97Q444.26 15.96 443.83 15.95Q443.39 15.95 442.69 15.95L442.69 15.95Q442.23 15.95 441.82 15.97Q441.41 15.99 440.99 16.03Q440.57 16.07 440.10 16.14Q439.63 16.21 439.04 16.31L439.04 16.31Q438.40 16.06 437.79 15.08L437.79 15.08Q438.03 14.57 438.46 13.54Q438.89 12.52 439.54 10.79L439.54 10.79Q438.91 10.60 438.72 10.09L438.72 10.09Q438.79 10.02 439.12 9.92Q439.46 9.81 439.95 9.70L439.95 9.70Q440.16 9.16 440.31 8.75Q440.45 8.34 440.57 7.99Q440.68 7.63 440.77 7.29Q440.86 6.94 440.94 6.54L440.94 6.54Q440.45 6.51 440.17 6.27Q439.89 6.02 439.89 5.63L439.89 5.63Q439.89 5.52 439.93 5.36Q439.96 5.21 440.01 5.10L440.01 5.10Q440.29 5.14 440.55 5.15Q440.80 5.17 441.22 5.17L441.22 5.17Q442.11 5.17 442.88 5.12Q443.65 5.07 444.27 5.01Q444.89 4.96 445.34 4.91Q445.79 4.86 446.03 4.86L446.03 4.86Q446.35 4.86 446.60 5.19Q446.85 5.53 446.98 6.15L446.98 6.15Q446.54 6.10 446.27 6.09Q446.00 6.08 445.79 6.08L445.79 6.08Q445.02 6.08 444.38 6.15Q443.74 6.23 443.16 6.31L443.16 6.31Q443.07 6.44 442.97 6.64Q442.86 6.83 442.69 7.18Q442.53 7.53 442.28 8.06Q442.04 8.60 441.69 9.39L441.69 9.39Q442.22 9.31 442.69 9.26Q443.16 9.21 443.48 9.21ZM459.59 4.98L459.59 4.98Q459.86 5.10 460.14 5.27Q460.42 5.45 460.66 5.63Q460.89 5.81 461.06 5.98Q461.22 6.16 461.23 6.27L461.23 6.27Q460.99 6.22 460.75 6.20Q460.52 6.17 460.32 6.17L460.32 6.17Q459.69 6.17 459.07 6.48Q458.44 6.79 457.88 7.32Q457.32 7.85 456.85 8.57Q456.37 9.28 456.03 10.09Q455.69 10.91 455.49 11.77Q455.29 12.64 455.29 13.48L455.29 13.48Q455.29 14.57 455.66 15.11Q456.02 15.64 456.72 15.64L456.72 15.64Q457.06 15.64 457.45 15.51Q457.84 15.37 458.25 15.13Q458.65 14.90 459.05 14.56Q459.44 14.22 459.77 13.82L459.77 13.82Q460.26 13.23 460.66 12.48Q461.05 11.73 461.32 10.89Q461.59 10.05 461.74 9.16Q461.89 8.27 461.89 7.42L461.89 7.42Q461.89 7.08 461.87 6.85Q461.86 6.62 461.84 6.46Q461.82 6.30 461.80 6.20Q461.79 6.10 461.78 6.03L461.78 6.03Q461.94 6.12 462.15 6.24Q462.35 6.36 462.53 6.59Q462.70 6.82 462.82 7.20Q462.94 7.57 462.94 8.18L462.94 8.18Q462.94 9.16 462.71 10.10Q462.48 11.05 462.06 11.90Q461.65 12.75 461.09 13.50Q460.53 14.24 459.89 14.80L459.89 14.80Q459.05 15.54 458.09 15.95Q457.14 16.35 456.26 16.35L456.26 16.35Q454.97 16.35 454.29 15.53Q453.61 14.71 453.61 13.12L453.61 13.12Q453.61 12.26 453.80 11.31Q453.99 10.36 454.34 9.44Q454.68 8.51 455.15 7.68Q455.63 6.85 456.20 6.21Q456.76 5.57 457.42 5.19Q458.07 4.82 458.75 4.82L458.75 4.82Q458.98 4.82 459.17 4.85Q459.37 4.89 459.59 4.98ZM479.79 7.63L479.79 7.63Q479.79 8.40 479.41 9.10Q479.02 9.80 478.37 10.32Q477.72 10.85 476.85 11.16Q475.97 11.47 474.99 11.47L474.99 11.47Q474.64 11.47 474.44 11.38Q474.24 11.28 473.98 11.02L473.98 11.02Q473.28 12.54 472.84 13.82Q472.40 15.11 472.15 16.31L472.15 16.31Q471.62 16.18 471.28 15.87Q470.95 15.55 470.67 15.08L470.67 15.08Q470.81 14.81 471.00 14.38Q471.20 13.94 471.48 13.31Q471.76 12.67 472.13 11.78Q472.50 10.89 473.00 9.70L473.00 9.70Q473.23 9.16 473.40 8.75Q473.56 8.34 473.69 7.99Q473.82 7.63 473.92 7.28Q474.03 6.93 474.14 6.51L474.14 6.51Q473.48 6.72 472.93 7Q472.37 7.28 472.01 7.59L472.01 7.59Q471.88 7.50 471.75 7.34Q471.62 7.17 471.51 6.96Q471.39 6.76 471.31 6.55Q471.23 6.34 471.21 6.17L471.21 6.17Q471.62 5.89 472.22 5.66Q472.82 5.42 473.51 5.24Q474.19 5.07 474.93 4.97Q475.66 4.87 476.34 4.87L476.34 4.87Q477.13 4.87 477.78 5.07Q478.42 5.28 478.87 5.64Q479.32 6.01 479.56 6.51Q479.79 7.01 479.79 7.63ZM477.30 5.95L477.30 5.95Q476.77 5.95 476.21 6.03L476.21 6.03L476.38 6.29Q476.24 6.47 476.03 6.83Q475.82 7.20 475.57 7.71Q475.31 8.22 475.01 8.85Q474.71 9.48 474.38 10.18L474.38 10.18Q475.47 10.18 476.36 9.97Q477.26 9.77 477.90 9.41Q478.53 9.06 478.89 8.58Q479.25 8.11 479.25 7.56L479.25 7.56Q479.25 6.83 478.76 6.39Q478.27 5.95 477.30 5.95ZM491.46 14.38L491.46 14.38Q491.81 14.98 491.81 15.54L491.81 15.54Q491.81 15.67 491.79 15.77Q491.76 15.88 491.74 15.99L491.74 15.99Q491.50 15.96 491.24 15.95Q490.98 15.93 490.70 15.93L490.70 15.93Q490.36 15.93 490.02 15.95Q489.68 15.97 489.26 16.02Q488.84 16.06 488.32 16.13Q487.80 16.20 487.12 16.31L487.12 16.31Q486.79 16.20 486.47 15.87Q486.15 15.54 485.87 15.08L485.87 15.08Q486.01 14.77 486.22 14.31Q486.43 13.86 486.71 13.21Q486.99 12.56 487.33 11.68Q487.68 10.81 488.07 9.66L488.07 9.66Q488.32 8.90 488.50 8.33Q488.68 7.76 488.83 7.22Q488.98 6.68 489.12 6.09Q489.26 5.50 489.43 4.73L489.43 4.73Q489.99 4.84 490.40 5.14Q490.81 5.45 491.19 6.01L491.19 6.01Q491.08 6.19 490.90 6.59Q490.71 7 490.47 7.58Q490.22 8.16 489.93 8.90Q489.64 9.63 489.31 10.47L489.31 10.47Q489.01 11.30 488.71 12.03Q488.42 12.75 488.19 13.34Q487.96 13.93 487.82 14.35Q487.68 14.77 487.68 14.98L487.68 14.98Q487.90 14.97 488.08 14.95Q488.26 14.94 488.46 14.90Q488.66 14.87 488.89 14.82Q489.12 14.77 489.44 14.69L489.44 14.69Q489.72 14.62 489.96 14.57Q490.20 14.52 490.43 14.48Q490.66 14.45 490.90 14.43Q491.15 14.41 491.46 14.38ZM505.88 9.21L505.88 9.21Q506.34 9.21 506.60 9.46Q506.86 9.72 506.86 10.16L506.86 10.16Q506.86 10.28 506.84 10.39Q506.81 10.51 506.79 10.60L506.79 10.60Q506.60 10.57 506.38 10.55Q506.16 10.53 505.85 10.53L505.85 10.53Q505.25 10.53 504.63 10.63Q504.01 10.74 503.45 10.81L503.45 10.81Q503.13 11.55 502.87 12.24Q502.60 12.94 502.41 13.51Q502.22 14.08 502.12 14.50Q502.01 14.92 502.00 15.13L502.00 15.13Q503.13 14.90 504.29 14.73Q505.44 14.56 506.72 14.48L506.72 14.48Q506.87 14.71 506.98 14.99Q507.08 15.27 507.08 15.60L507.08 15.60Q507.08 15.68 507.08 15.78Q507.08 15.88 507.05 15.97L507.05 15.97Q506.66 15.96 506.23 15.95Q505.79 15.95 505.09 15.95L505.09 15.95Q504.63 15.95 504.22 15.97Q503.80 15.99 503.38 16.03Q502.96 16.07 502.50 16.14Q502.03 16.21 501.44 16.31L501.44 16.31Q500.79 16.06 500.19 15.08L500.19 15.08Q500.43 14.57 500.86 13.54Q501.28 12.52 501.94 10.79L501.94 10.79Q501.31 10.60 501.12 10.09L501.12 10.09Q501.19 10.02 501.52 9.92Q501.86 9.81 502.35 9.70L502.35 9.70Q502.56 9.16 502.71 8.75Q502.85 8.34 502.96 7.99Q503.08 7.63 503.17 7.29Q503.26 6.94 503.34 6.54L503.34 6.54Q502.85 6.51 502.57 6.27Q502.29 6.02 502.29 5.63L502.29 5.63Q502.29 5.52 502.33 5.36Q502.36 5.21 502.40 5.10L502.40 5.10Q502.68 5.14 502.94 5.15Q503.20 5.17 503.62 5.17L503.62 5.17Q504.50 5.17 505.27 5.12Q506.04 5.07 506.67 5.01Q507.29 4.96 507.74 4.91Q508.19 4.86 508.42 4.86L508.42 4.86Q508.75 4.86 509.00 5.19Q509.25 5.53 509.38 6.15L509.38 6.15Q508.94 6.10 508.67 6.09Q508.40 6.08 508.19 6.08L508.19 6.08Q507.42 6.08 506.78 6.15Q506.14 6.23 505.55 6.31L505.55 6.31Q505.47 6.44 505.37 6.64Q505.26 6.83 505.09 7.18Q504.92 7.53 504.68 8.06Q504.43 8.60 504.08 9.39L504.08 9.39Q504.62 9.31 505.09 9.26Q505.55 9.21 505.88 9.21ZM514.44 17.54L514.44 17.54Q514.36 17.47 514.29 17.31Q514.22 17.15 514.22 17.01L514.22 17.01Q514.92 16.41 515.22 15.86Q515.52 15.32 515.52 14.67L515.52 14.67Q515.52 14.25 515.49 13.95Q515.45 13.65 515.35 13.26L515.35 13.26Q515.70 13.29 516.05 13.38Q516.39 13.47 516.66 13.60Q516.94 13.73 517.12 13.91Q517.30 14.08 517.34 14.25L517.34 14.25Q516.68 16.58 514.44 17.54ZM536.89 12.43L536.89 12.43Q536.89 11.45 537.12 10.51Q537.35 9.56 537.77 8.71Q538.19 7.87 538.77 7.16Q539.35 6.45 540.04 5.94Q540.74 5.42 541.52 5.13Q542.30 4.84 543.13 4.84L543.13 4.84Q544.10 4.84 544.64 5.25Q545.17 5.66 545.17 6.38L545.17 6.38Q545.17 6.66 545.10 6.96Q545.02 7.25 544.87 7.54Q544.73 7.83 544.53 8.09Q544.33 8.36 544.10 8.55L544.10 8.55Q543.73 8.50 543.47 8.22Q543.20 7.95 543.13 7.59L543.13 7.59Q543.62 7.18 543.91 6.74Q544.19 6.30 544.19 5.94L544.19 5.94Q544.19 5.32 543.42 5.32L543.42 5.32Q543.10 5.32 542.76 5.45Q542.42 5.59 542.07 5.82Q541.72 6.06 541.39 6.40Q541.06 6.73 540.78 7.14L540.78 7.14Q538.83 9.94 538.83 12.87L538.83 12.87Q538.83 13.90 539.15 14.53Q539.48 15.16 540.01 15.27L540.01 15.27Q540.61 15.13 541.53 14.50Q542.46 13.87 543.55 12.87L543.55 12.87Q543.69 13.01 543.72 13.16L543.72 13.16Q543.31 13.69 542.88 14.18Q542.44 14.67 542.02 15.08Q541.59 15.48 541.18 15.79Q540.76 16.10 540.41 16.27L540.41 16.27Q538.68 16.24 537.78 15.27Q536.89 14.31 536.89 12.43ZM557.14 5.75L557.14 5.75Q556.53 6.58 556.02 7.57Q555.52 8.57 555.16 9.61Q554.81 10.65 554.62 11.67Q554.43 12.68 554.43 13.57L554.43 13.57Q554.43 14.66 554.75 15.15Q555.07 15.64 555.86 15.64L555.86 15.64Q556.77 15.64 557.45 15.00Q558.14 14.36 558.74 13.24L558.74 13.24Q559.13 12.52 559.41 11.65Q559.69 10.78 559.87 9.86Q560.04 8.95 560.13 8.02Q560.21 7.08 560.21 6.23L560.21 6.23Q560.21 5.68 560.20 5.43Q560.18 5.18 560.15 5.03L560.15 5.03Q560.20 5.03 560.36 5.05Q560.53 5.08 560.75 5.12Q560.97 5.17 561.18 5.24Q561.40 5.31 561.55 5.39L561.55 5.39Q561.48 6.45 561.30 7.59Q561.11 8.72 560.80 9.83Q560.49 10.93 560.08 11.96Q559.68 12.98 559.17 13.79L559.17 13.79Q558.43 14.99 557.51 15.67Q556.58 16.35 555.32 16.35L555.32 16.35Q554.04 16.35 553.32 15.60Q552.61 14.85 552.61 13.33L552.61 13.33Q552.61 12.45 552.80 11.33Q553.00 10.22 553.33 9.07Q553.66 7.91 554.09 6.81Q554.53 5.71 555.00 4.84L555.00 4.84Q555.24 4.86 555.56 4.94Q555.88 5.03 556.19 5.16Q556.50 5.29 556.76 5.45Q557.02 5.61 557.14 5.75ZM573.73 14.38L573.73 14.38Q574.08 14.98 574.08 15.54L574.08 15.54Q574.08 15.67 574.06 15.77Q574.04 15.88 574.01 15.99L574.01 15.99Q573.78 15.96 573.52 15.95Q573.26 15.93 572.98 15.93L572.98 15.93Q572.64 15.93 572.30 15.95Q571.96 15.97 571.54 16.02Q571.12 16.06 570.60 16.13Q570.08 16.20 569.39 16.31L569.39 16.31Q569.07 16.20 568.75 15.87Q568.43 15.54 568.15 15.08L568.15 15.08Q568.29 14.77 568.50 14.31Q568.71 13.86 568.99 13.21Q569.27 12.56 569.61 11.68Q569.95 10.81 570.35 9.66L570.35 9.66Q570.60 8.90 570.78 8.33Q570.96 7.76 571.11 7.22Q571.26 6.68 571.40 6.09Q571.54 5.50 571.70 4.73L571.70 4.73Q572.26 4.84 572.68 5.14Q573.09 5.45 573.47 6.01L573.47 6.01Q573.36 6.19 573.17 6.59Q572.99 7 572.75 7.58Q572.50 8.16 572.21 8.90Q571.91 9.63 571.59 10.47L571.59 10.47Q571.28 11.30 570.99 12.03Q570.70 12.75 570.47 13.34Q570.23 13.93 570.09 14.35Q569.95 14.77 569.95 14.98L569.95 14.98Q570.18 14.97 570.36 14.95Q570.54 14.94 570.74 14.90Q570.93 14.87 571.17 14.82Q571.40 14.77 571.72 14.69L571.72 14.69Q572.00 14.62 572.24 14.57Q572.47 14.52 572.71 14.48Q572.94 14.45 573.18 14.43Q573.43 14.41 573.73 14.38ZM584.29 6.69L584.29 6.69Q583.73 6.69 583.43 6.38Q583.13 6.06 583.13 5.61L583.13 5.61Q583.13 5.50 583.16 5.35Q583.20 5.19 583.25 5.08L583.25 5.08Q583.44 5.17 583.79 5.20Q584.15 5.24 584.63 5.24L584.63 5.24Q585.34 5.24 586.24 5.17Q587.15 5.11 587.97 5.04Q588.80 4.97 589.43 4.91Q590.06 4.84 590.24 4.84L590.24 4.84Q590.76 4.84 590.99 5.23Q591.22 5.61 591.33 6.26L591.33 6.26Q590.97 6.23 590.61 6.21Q590.25 6.19 590.00 6.19L590.00 6.19Q589.55 6.19 589.10 6.22Q588.64 6.24 588.18 6.30L588.18 6.30Q587.99 6.71 587.75 7.26Q587.51 7.81 587.28 8.41Q587.05 9.02 586.84 9.61Q586.63 10.21 586.47 10.68L586.47 10.68Q586.17 11.61 585.94 12.39Q585.70 13.17 585.53 13.85Q585.35 14.53 585.23 15.15Q585.10 15.76 585.00 16.35L585.00 16.35Q584.07 16.21 583.44 15.18L583.44 15.18Q583.55 14.74 583.71 14.23Q583.87 13.72 584.09 13.07Q584.30 12.42 584.60 11.59Q584.89 10.77 585.27 9.72L585.27 9.72Q585.41 9.32 585.56 8.90Q585.72 8.47 585.87 8.05Q586.01 7.63 586.13 7.24Q586.25 6.85 586.33 6.52L586.33 6.52Q585.75 6.59 585.22 6.64Q584.70 6.69 584.29 6.69ZM602.13 5.75L602.13 5.75Q601.51 6.58 601.01 7.57Q600.50 8.57 600.15 9.61Q599.79 10.65 599.60 11.67Q599.41 12.68 599.41 13.57L599.41 13.57Q599.41 14.66 599.73 15.15Q600.05 15.64 600.84 15.64L600.84 15.64Q601.75 15.64 602.43 15.00Q603.12 14.36 603.72 13.24L603.72 13.24Q604.11 12.52 604.39 11.65Q604.67 10.78 604.85 9.86Q605.02 8.95 605.11 8.02Q605.19 7.08 605.19 6.23L605.19 6.23Q605.19 5.68 605.18 5.43Q605.16 5.18 605.14 5.03L605.14 5.03Q605.18 5.03 605.35 5.05Q605.51 5.08 605.73 5.12Q605.95 5.17 606.17 5.24Q606.38 5.31 606.54 5.39L606.54 5.39Q606.47 6.45 606.28 7.59Q606.09 8.72 605.78 9.83Q605.47 10.93 605.07 11.96Q604.66 12.98 604.16 13.79L604.16 13.79Q603.41 14.99 602.49 15.67Q601.57 16.35 600.31 16.35L600.31 16.35Q599.02 16.35 598.30 15.60Q597.59 14.85 597.59 13.33L597.59 13.33Q597.59 12.45 597.79 11.33Q597.98 10.22 598.31 9.07Q598.64 7.91 599.07 6.81Q599.51 5.71 599.98 4.84L599.98 4.84Q600.22 4.86 600.54 4.94Q600.87 5.03 601.17 5.16Q601.48 5.29 601.74 5.45Q602.00 5.61 602.13 5.75ZM623.03 7.46L623.03 7.46Q623.03 8.13 622.73 8.73Q622.43 9.32 621.89 9.79Q621.36 10.26 620.65 10.58Q619.93 10.91 619.09 11.02L619.09 11.02Q619.30 11.65 619.61 12.31Q619.91 12.98 620.26 13.59Q620.61 14.21 620.98 14.73Q621.36 15.25 621.73 15.58L621.73 15.58Q621.66 15.72 621.52 15.86Q621.39 16.00 621.22 16.12Q621.04 16.24 620.85 16.32Q620.66 16.39 620.49 16.39L620.49 16.39Q620.19 16.39 619.91 16.10Q619.63 15.81 619.34 15.17Q619.05 14.53 618.74 13.52Q618.42 12.50 618.04 11.07L618.04 11.07Q617.89 11.07 617.74 11.07Q617.58 11.07 617.50 11.05L617.50 11.05Q617.40 10.99 617.29 10.85L617.29 10.85Q616.91 11.66 616.62 12.38Q616.32 13.09 616.09 13.76Q615.86 14.42 615.69 15.04Q615.51 15.67 615.38 16.31L615.38 16.31Q614.91 16.20 614.56 15.90Q614.21 15.61 613.90 15.08L613.90 15.08Q613.96 14.95 614.02 14.83Q614.08 14.71 614.18 14.50Q614.28 14.28 614.43 13.94Q614.57 13.61 614.82 13.05Q615.06 12.49 615.41 11.68Q615.75 10.86 616.24 9.70L616.24 9.70Q616.46 9.18 616.62 8.79Q616.78 8.40 616.91 8.04Q617.04 7.69 617.14 7.33Q617.25 6.97 617.36 6.51L617.36 6.51Q616.71 6.73 616.16 7.01Q615.61 7.28 615.24 7.59L615.24 7.59Q615.12 7.50 614.99 7.34Q614.85 7.17 614.74 6.96Q614.63 6.76 614.54 6.55Q614.46 6.34 614.45 6.17L614.45 6.17Q614.87 5.89 615.48 5.66Q616.08 5.42 616.77 5.24Q617.46 5.07 618.17 4.97Q618.88 4.87 619.50 4.87L619.50 4.87Q621.18 4.87 622.10 5.56Q623.03 6.26 623.03 7.46ZM619.44 6.02L619.61 6.29Q619.51 6.41 619.30 6.79Q619.09 7.17 618.82 7.69Q618.55 8.22 618.25 8.83Q617.95 9.45 617.67 10.05L617.67 10.05Q618.72 10.05 619.60 9.86Q620.48 9.66 621.12 9.30Q621.77 8.95 622.13 8.46Q622.48 7.98 622.48 7.39L622.48 7.39Q622.48 6.69 621.98 6.32Q621.47 5.95 620.42 5.95L620.42 5.95Q620.19 5.95 619.95 5.97Q619.71 5.99 619.44 6.02L619.44 6.02ZM635.85 9.21L635.85 9.21Q636.31 9.21 636.57 9.46Q636.83 9.72 636.83 10.16L636.83 10.16Q636.83 10.28 636.81 10.39Q636.79 10.51 636.76 10.60L636.76 10.60Q636.58 10.57 636.36 10.55Q636.13 10.53 635.82 10.53L635.82 10.53Q635.22 10.53 634.61 10.63Q633.99 10.74 633.43 10.81L633.43 10.81Q633.11 11.55 632.84 12.24Q632.58 12.94 632.39 13.51Q632.20 14.08 632.09 14.50Q631.99 14.92 631.97 15.13L631.97 15.13Q633.11 14.90 634.26 14.73Q635.42 14.56 636.69 14.48L636.69 14.48Q636.85 14.71 636.95 14.99Q637.06 15.27 637.06 15.60L637.06 15.60Q637.06 15.68 637.06 15.78Q637.06 15.88 637.03 15.97L637.03 15.97Q636.64 15.96 636.20 15.95Q635.77 15.95 635.07 15.95L635.07 15.95Q634.61 15.95 634.19 15.97Q633.78 15.99 633.36 16.03Q632.94 16.07 632.47 16.14Q632.00 16.21 631.41 16.31L631.41 16.31Q630.77 16.06 630.17 15.08L630.17 15.08Q630.41 14.57 630.83 13.54Q631.26 12.52 631.92 10.79L631.92 10.79Q631.29 10.60 631.09 10.09L631.09 10.09Q631.16 10.02 631.50 9.92Q631.83 9.81 632.32 9.70L632.32 9.70Q632.53 9.16 632.68 8.75Q632.83 8.34 632.94 7.99Q633.05 7.63 633.14 7.29Q633.23 6.94 633.32 6.54L633.32 6.54Q632.83 6.51 632.55 6.27Q632.27 6.02 632.27 5.63L632.27 5.63Q632.27 5.52 632.30 5.36Q632.34 5.21 632.38 5.10L632.38 5.10Q632.66 5.14 632.92 5.15Q633.18 5.17 633.60 5.17L633.60 5.17Q634.48 5.17 635.25 5.12Q636.02 5.07 636.64 5.01Q637.27 4.96 637.71 4.91Q638.16 4.86 638.40 4.86L638.40 4.86Q638.72 4.86 638.97 5.19Q639.23 5.53 639.35 6.15L639.35 6.15Q638.92 6.10 638.65 6.09Q638.37 6.08 638.16 6.08L638.16 6.08Q637.39 6.08 636.76 6.15Q636.12 6.23 635.53 6.31L635.53 6.31Q635.45 6.44 635.34 6.64Q635.24 6.83 635.07 7.18Q634.90 7.53 634.66 8.06Q634.41 8.60 634.06 9.39L634.06 9.39Q634.59 9.31 635.06 9.26Q635.53 9.21 635.85 9.21ZM644.42 17.54L644.42 17.54Q644.34 17.47 644.27 17.31Q644.20 17.15 644.20 17.01L644.20 17.01Q644.90 16.41 645.20 15.86Q645.50 15.32 645.50 14.67L645.50 14.67Q645.50 14.25 645.46 13.95Q645.43 13.65 645.33 13.26L645.33 13.26Q645.68 13.29 646.02 13.38Q646.37 13.47 646.64 13.60Q646.91 13.73 647.09 13.91Q647.28 14.08 647.32 14.25L647.32 14.25Q646.66 16.58 644.42 17.54ZM666.92 16.24L666.92 16.24Q666.25 16.04 665.99 15.85Q665.73 15.65 665.73 15.36L665.73 15.36Q665.73 15.13 665.85 14.73Q665.98 14.32 666.23 13.77Q666.47 13.22 666.81 12.54Q667.16 11.87 667.59 11.10L667.59 11.10Q667.23 11.09 666.94 11.08Q666.65 11.07 666.47 11.07L666.47 11.07Q666.55 10.86 666.95 10.71Q667.34 10.56 667.98 10.44L667.98 10.44Q668.53 9.53 669.15 8.71Q669.77 7.88 670.40 7.19Q671.03 6.50 671.66 5.97Q672.29 5.45 672.87 5.14L672.87 5.14Q672.88 5.04 672.89 4.97Q672.90 4.90 672.90 4.87L672.90 4.87Q673.09 4.87 673.42 4.97Q673.75 5.07 674.07 5.21Q674.38 5.35 674.63 5.49Q674.87 5.64 674.90 5.74L674.90 5.74Q674.44 6.55 673.99 8.17Q673.54 9.79 673.25 12.04L673.25 12.04Q673.18 12.60 673.13 13.31Q673.08 14.03 673.08 14.91L673.08 14.91Q673.08 15.22 673.08 15.54Q673.08 15.86 673.11 16.21L673.11 16.21Q673.08 16.23 673.05 16.23Q673.02 16.23 672.94 16.23L672.94 16.23Q672.74 16.23 672.48 16.16Q672.22 16.10 671.98 16.01Q671.73 15.92 671.56 15.81Q671.38 15.69 671.34 15.61L671.34 15.61Q671.33 15.43 671.33 15.25Q671.33 15.08 671.33 14.88L671.33 14.88Q671.33 14.01 671.39 13.12Q671.45 12.22 671.61 11.27L671.61 11.27Q671.41 11.26 671.09 11.23Q670.77 11.21 670.37 11.20Q669.97 11.19 669.52 11.16Q669.06 11.14 668.63 11.13L668.63 11.13Q668.29 11.76 668.00 12.38Q667.70 13.01 667.49 13.64L667.49 13.64Q667.25 14.31 667.11 14.98Q666.96 15.65 666.92 16.24ZM672.32 7.83L672.32 7.83Q672.38 7.63 672.46 7.29Q672.53 6.94 672.60 6.57L672.60 6.57Q672.25 6.69 671.83 7.03Q671.40 7.36 670.94 7.86Q670.49 8.36 670.02 8.98Q669.55 9.60 669.12 10.30L669.12 10.30Q670.29 10.21 671.79 10.18L671.79 10.18Q671.90 9.59 672.04 9.01Q672.17 8.43 672.32 7.83ZM683.52 16.24L683.52 16.24Q682.72 16.00 682.44 15.79Q682.16 15.57 682.16 15.19L682.16 15.19Q682.16 14.77 682.36 14.01Q682.56 13.24 682.87 12.31Q683.19 11.37 683.59 10.35Q684.00 9.32 684.42 8.39Q684.84 7.45 685.24 6.67Q685.64 5.89 685.94 5.46L685.94 5.46L685.85 4.87Q686.04 4.87 686.39 4.97Q686.74 5.07 687.10 5.21Q687.46 5.35 687.73 5.49Q688.00 5.64 688.03 5.74L688.03 5.74Q687.96 6.08 687.92 6.76Q687.88 7.43 687.88 8.20L687.88 8.20Q687.88 9.73 688.00 11.19Q688.11 12.66 688.55 14.17L688.55 14.17Q688.77 13.05 689.03 11.94Q689.29 10.82 689.57 9.81Q689.85 8.79 690.13 7.92Q690.41 7.06 690.67 6.40Q690.93 5.75 691.15 5.38Q691.38 5.01 691.56 4.98L691.56 4.98Q691.71 5.01 691.89 5.10Q692.08 5.19 692.24 5.32Q692.41 5.45 692.55 5.60Q692.69 5.75 692.78 5.91L692.78 5.91Q692.33 6.09 691.89 6.76Q691.45 7.43 691.05 8.39Q690.65 9.35 690.31 10.47Q689.96 11.59 689.70 12.68Q689.44 13.76 689.30 14.69Q689.15 15.61 689.14 16.17L689.14 16.17Q689.14 16.20 689.15 16.21L689.15 16.21Q689.11 16.23 689.06 16.23Q689.01 16.23 688.97 16.23L688.97 16.23Q688.32 16.23 687.83 16.07Q687.33 15.90 687.18 15.61L687.18 15.61Q686.88 14.43 686.69 13.34Q686.49 12.25 686.36 11.16Q686.22 10.07 686.15 8.95Q686.07 7.84 686.03 6.62L686.03 6.62Q685.76 7.04 685.47 7.72Q685.17 8.40 684.89 9.21Q684.61 10.02 684.36 10.92Q684.10 11.82 683.90 12.67Q683.70 13.52 683.59 14.29Q683.48 15.05 683.48 15.61L683.48 15.61Q683.48 15.90 683.49 16.03Q683.49 16.16 683.52 16.24ZM699.78 14.45L699.78 14.45Q699.99 13.99 700.28 13.26Q700.57 12.53 700.90 11.68Q701.22 10.84 701.55 9.95Q701.89 9.06 702.18 8.26Q702.48 7.46 702.70 6.83Q702.91 6.20 703.01 5.87L703.01 5.87Q702.13 6.23 701.50 6.97Q700.87 7.71 700.55 8.83L700.55 8.83Q700.22 8.72 699.96 8.43Q699.69 8.15 699.61 7.71L699.61 7.71Q699.75 7.07 700.13 6.54Q700.52 6.01 701.11 5.63Q701.69 5.25 702.46 5.05Q703.23 4.84 704.12 4.84L704.12 4.84Q705.24 4.84 706.17 5.17Q707.11 5.50 707.78 6.09Q708.46 6.68 708.83 7.50Q709.21 8.33 709.21 9.34L709.21 9.34Q709.21 10.71 708.71 11.96Q708.20 13.20 707.34 14.15Q706.48 15.11 705.35 15.67Q704.21 16.24 702.97 16.24L702.97 16.24Q701.82 16.24 701.00 15.79Q700.18 15.33 699.78 14.45ZM704.72 5.54L704.72 5.54Q704.02 5.54 703.39 5.74L703.39 5.74Q704.00 5.96 704.41 6.21Q704.82 6.45 704.97 6.59L704.97 6.59Q704.86 6.75 704.64 7.14Q704.42 7.53 704.14 8.09Q703.85 8.65 703.53 9.32Q703.21 9.98 702.90 10.68L702.90 10.68Q702.10 12.46 701.74 13.48Q701.39 14.50 701.39 14.90L701.39 14.90Q701.58 14.97 701.86 14.99Q702.14 15.02 702.46 15.02L702.46 15.02Q703.60 15.02 704.61 14.50Q705.63 13.97 706.39 13.09Q707.15 12.21 707.60 11.04Q708.04 9.87 708.04 8.58L708.04 8.58Q708.04 7.14 707.14 6.34Q706.24 5.54 704.72 5.54ZM727.64 12.43L727.64 12.43Q727.64 11.45 727.87 10.51Q728.10 9.56 728.52 8.71Q728.94 7.87 729.52 7.16Q730.10 6.45 730.79 5.94Q731.49 5.42 732.27 5.13Q733.05 4.84 733.88 4.84L733.88 4.84Q734.85 4.84 735.39 5.25Q735.92 5.66 735.92 6.38L735.92 6.38Q735.92 6.66 735.85 6.96Q735.77 7.25 735.62 7.54Q735.48 7.83 735.28 8.09Q735.08 8.36 734.85 8.55L734.85 8.55Q734.48 8.50 734.22 8.22Q733.95 7.95 733.88 7.59L733.88 7.59Q734.37 7.18 734.66 6.74Q734.94 6.30 734.94 5.94L734.94 5.94Q734.94 5.32 734.17 5.32L734.17 5.32Q733.85 5.32 733.51 5.45Q733.17 5.59 732.82 5.82Q732.47 6.06 732.14 6.40Q731.81 6.73 731.53 7.14L731.53 7.14Q729.58 9.94 729.58 12.87L729.58 12.87Q729.58 13.90 729.90 14.53Q730.23 15.16 730.76 15.27L730.76 15.27Q731.36 15.13 732.28 14.50Q733.21 13.87 734.30 12.87L734.30 12.87Q734.44 13.01 734.47 13.16L734.47 13.16Q734.06 13.69 733.63 14.18Q733.19 14.67 732.77 15.08Q732.34 15.48 731.93 15.79Q731.51 16.10 731.16 16.27L731.16 16.27Q729.43 16.24 728.53 15.27Q727.64 14.31 727.64 12.43ZM747.89 5.75L747.89 5.75Q747.28 6.58 746.77 7.57Q746.27 8.57 745.91 9.61Q745.56 10.65 745.37 11.67Q745.18 12.68 745.18 13.57L745.18 13.57Q745.18 14.66 745.50 15.15Q745.82 15.64 746.61 15.64L746.61 15.64Q747.52 15.64 748.20 15.00Q748.89 14.36 749.49 13.24L749.49 13.24Q749.88 12.52 750.16 11.65Q750.44 10.78 750.62 9.86Q750.79 8.95 750.88 8.02Q750.96 7.08 750.96 6.23L750.96 6.23Q750.96 5.68 750.95 5.43Q750.93 5.18 750.90 5.03L750.90 5.03Q750.95 5.03 751.11 5.05Q751.28 5.08 751.50 5.12Q751.72 5.17 751.93 5.24Q752.15 5.31 752.30 5.39L752.30 5.39Q752.23 6.45 752.05 7.59Q751.86 8.72 751.55 9.83Q751.24 10.93 750.83 11.96Q750.43 12.98 749.92 13.79L749.92 13.79Q749.18 14.99 748.26 15.67Q747.33 16.35 746.07 16.35L746.07 16.35Q744.79 16.35 744.07 15.60Q743.36 14.85 743.36 13.33L743.36 13.33Q743.36 12.45 743.55 11.33Q743.75 10.22 744.08 9.07Q744.41 7.91 744.84 6.81Q745.28 5.71 745.75 4.84L745.75 4.84Q745.99 4.86 746.31 4.94Q746.63 5.03 746.94 5.16Q747.25 5.29 747.51 5.45Q747.77 5.61 747.89 5.75ZM759.70 14.38L759.70 14.38Q759.70 13.87 759.86 13.07Q760.02 12.26 760.28 11.33Q760.54 10.40 760.87 9.43Q761.21 8.46 761.56 7.60Q761.91 6.75 762.24 6.10Q762.58 5.46 762.85 5.18L762.85 5.18Q762.99 5.19 763.22 5.29Q763.45 5.38 763.69 5.50Q763.92 5.63 764.12 5.78Q764.32 5.92 764.37 6.05L764.37 6.05Q763.97 6.41 763.57 7.15Q763.17 7.88 762.80 8.82Q762.43 9.76 762.10 10.80Q761.78 11.84 761.54 12.82Q761.31 13.80 761.17 14.64Q761.04 15.48 761.04 16.00L761.04 16.00Q761.04 16.24 761.08 16.30L761.08 16.30Q760.77 16.28 760.63 16.19Q760.49 16.10 760.42 16.00Q760.34 15.89 760.28 15.79Q760.21 15.68 760.09 15.62L760.09 15.62Q759.99 15.58 759.92 15.43Q759.85 15.27 759.80 15.09Q759.75 14.90 759.72 14.70Q759.70 14.50 759.70 14.38ZM779.81 5.74L779.81 5.74Q779.86 5.98 779.88 6.07Q779.90 6.16 779.90 6.31L779.90 6.31Q779.90 6.78 779.70 7.18Q779.49 7.57 779.14 7.74L779.14 7.74Q778.86 7.36 778.46 7.09Q778.05 6.82 777.57 6.64Q777.08 6.47 776.57 6.38Q776.05 6.30 775.56 6.30L775.56 6.30Q775.07 6.30 774.64 6.38Q774.21 6.45 773.89 6.59Q773.56 6.72 773.37 6.92Q773.18 7.11 773.18 7.36L773.18 7.36Q773.22 7.67 773.56 7.99Q773.89 8.30 774.38 8.60Q774.87 8.90 775.47 9.20Q776.06 9.49 776.64 9.76L776.64 9.76Q777.35 10.09 777.87 10.38Q778.39 10.67 778.72 11.01Q779.06 11.35 779.23 11.79Q779.39 12.22 779.39 12.84L779.39 12.84Q779.39 13.55 779.16 14.18Q778.92 14.80 778.46 15.26Q778.01 15.72 777.36 15.98Q776.72 16.24 775.92 16.24L775.92 16.24Q775.14 16.24 774.23 16.00Q773.32 15.76 772.53 15.35Q771.74 14.94 771.21 14.40Q770.69 13.86 770.69 13.26L770.69 13.26Q770.69 12.98 770.85 12.54Q771.01 12.11 771.43 11.63L771.43 11.63Q771.47 12.05 771.88 12.63Q772.30 13.20 773.12 13.69L773.12 13.69Q773.89 14.14 774.71 14.34Q775.53 14.55 776.24 14.55L776.24 14.55Q777.03 14.55 777.52 14.35Q778.01 14.15 778.29 13.88Q778.57 13.61 778.68 13.33Q778.79 13.05 778.81 12.88L778.81 12.88Q778.79 12.60 778.55 12.34Q778.30 12.08 777.89 11.84Q777.48 11.59 776.93 11.34Q776.38 11.09 775.80 10.84L775.80 10.84Q774.91 10.44 774.28 10.10Q773.64 9.76 773.23 9.40Q772.81 9.04 772.63 8.65Q772.44 8.26 772.44 7.76L772.44 7.76Q772.44 6.97 772.91 6.27Q773.39 5.57 774.28 5.21L774.28 5.21Q774.73 5.01 775.24 4.93Q775.75 4.84 776.24 4.84L776.24 4.84Q777.17 4.84 778.05 5.10Q778.93 5.35 779.81 5.74ZM787.93 14.38L787.93 14.38Q787.93 13.87 788.10 13.07Q788.26 12.26 788.52 11.33Q788.77 10.40 789.11 9.43Q789.45 8.46 789.80 7.60Q790.15 6.75 790.48 6.10Q790.82 5.46 791.08 5.18L791.08 5.18Q791.22 5.19 791.46 5.29Q791.69 5.38 791.92 5.50Q792.16 5.63 792.36 5.78Q792.55 5.92 792.61 6.05L792.61 6.05Q792.20 6.41 791.81 7.15Q791.41 7.88 791.04 8.82Q790.66 9.76 790.34 10.80Q790.02 11.84 789.78 12.82Q789.54 13.80 789.41 14.64Q789.28 15.48 789.28 16.00L789.28 16.00Q789.28 16.24 789.32 16.30L789.32 16.30Q789.01 16.28 788.87 16.19Q788.73 16.10 788.66 16.00Q788.58 15.89 788.52 15.79Q788.45 15.68 788.33 15.62L788.33 15.62Q788.23 15.58 788.16 15.43Q788.09 15.27 788.04 15.09Q787.99 14.90 787.96 14.70Q787.93 14.50 787.93 14.38ZM800.17 16.24L800.17 16.24Q799.37 16.00 799.09 15.79Q798.81 15.57 798.81 15.19L798.81 15.19Q798.81 14.77 799.01 14.01Q799.20 13.24 799.52 12.31Q799.83 11.37 800.24 10.35Q800.65 9.32 801.07 8.39Q801.49 7.45 801.89 6.67Q802.28 5.89 802.59 5.46L802.59 5.46L802.49 4.87Q802.69 4.87 803.04 4.97Q803.39 5.07 803.75 5.21Q804.10 5.35 804.38 5.49Q804.65 5.64 804.68 5.74L804.68 5.74Q804.61 6.08 804.57 6.76Q804.52 7.43 804.52 8.20L804.52 8.20Q804.52 9.73 804.64 11.19Q804.76 12.66 805.20 14.17L805.20 14.17Q805.42 13.05 805.68 11.94Q805.94 10.82 806.22 9.81Q806.50 8.79 806.78 7.92Q807.06 7.06 807.32 6.40Q807.58 5.75 807.80 5.38Q808.02 5.01 808.21 4.98L808.21 4.98Q808.36 5.01 808.54 5.10Q808.72 5.19 808.89 5.32Q809.06 5.45 809.20 5.60Q809.34 5.75 809.42 5.91L809.42 5.91Q808.98 6.09 808.54 6.76Q808.09 7.43 807.70 8.39Q807.30 9.35 806.95 10.47Q806.61 11.59 806.35 12.68Q806.09 13.76 805.95 14.69Q805.80 15.61 805.78 16.17L805.78 16.17Q805.78 16.20 805.80 16.21L805.80 16.21Q805.76 16.23 805.71 16.23Q805.66 16.23 805.62 16.23L805.62 16.23Q804.97 16.23 804.48 16.07Q803.98 15.90 803.82 15.61L803.82 15.61Q803.53 14.43 803.33 13.34Q803.14 12.25 803.01 11.16Q802.87 10.07 802.80 8.95Q802.72 7.84 802.68 6.62L802.68 6.62Q802.41 7.04 802.12 7.72Q801.82 8.40 801.54 9.21Q801.26 10.02 801.00 10.92Q800.74 11.82 800.55 12.67Q800.35 13.52 800.24 14.29Q800.13 15.05 800.13 15.61L800.13 15.61Q800.13 15.90 800.14 16.03Q800.14 16.16 800.17 16.24ZM821.27 9.21L821.27 9.21Q821.73 9.21 821.99 9.46Q822.25 9.72 822.25 10.16L822.25 10.16Q822.25 10.28 822.23 10.39Q822.21 10.51 822.18 10.60L822.18 10.60Q822.00 10.57 821.77 10.55Q821.55 10.53 821.24 10.53L821.24 10.53Q820.64 10.53 820.02 10.63Q819.41 10.74 818.85 10.81L818.85 10.81Q818.52 11.55 818.26 12.24Q817.99 12.94 817.80 13.51Q817.61 14.08 817.51 14.50Q817.40 14.92 817.39 15.13L817.39 15.13Q818.52 14.90 819.68 14.73Q820.83 14.56 822.11 14.48L822.11 14.48Q822.26 14.71 822.37 14.99Q822.47 15.27 822.47 15.60L822.47 15.60Q822.47 15.68 822.47 15.78Q822.47 15.88 822.44 15.97L822.44 15.97Q822.05 15.96 821.62 15.95Q821.18 15.95 820.48 15.95L820.48 15.95Q820.02 15.95 819.61 15.97Q819.20 15.99 818.78 16.03Q818.36 16.07 817.89 16.14Q817.42 16.21 816.83 16.31L816.83 16.31Q816.19 16.06 815.58 15.08L815.58 15.08Q815.82 14.57 816.25 13.54Q816.68 12.52 817.33 10.79L817.33 10.79Q816.70 10.60 816.51 10.09L816.51 10.09Q816.58 10.02 816.91 9.92Q817.25 9.81 817.74 9.70L817.74 9.70Q817.95 9.16 818.10 8.75Q818.24 8.34 818.36 7.99Q818.47 7.63 818.56 7.29Q818.65 6.94 818.73 6.54L818.73 6.54Q818.24 6.51 817.96 6.27Q817.68 6.02 817.68 5.63L817.68 5.63Q817.68 5.52 817.72 5.36Q817.75 5.21 817.80 5.10L817.80 5.10Q818.08 5.14 818.34 5.15Q818.59 5.17 819.01 5.17L819.01 5.17Q819.90 5.17 820.67 5.12Q821.44 5.07 822.06 5.01Q822.68 4.96 823.13 4.91Q823.58 4.86 823.82 4.86L823.82 4.86Q824.14 4.86 824.39 5.19Q824.64 5.53 824.77 6.15L824.77 6.15Q824.33 6.10 824.06 6.09Q823.79 6.08 823.58 6.08L823.58 6.08Q822.81 6.08 822.17 6.15Q821.53 6.23 820.95 6.31L820.95 6.31Q820.86 6.44 820.76 6.64Q820.65 6.83 820.48 7.18Q820.32 7.53 820.07 8.06Q819.83 8.60 819.48 9.39L819.48 9.39Q820.01 9.31 820.48 9.26Q820.95 9.21 821.27 9.21Z"></path></g></svg>