<svg data-v-fde0c5aa="" xmlns="http://www.w3.org/2000/svg" viewBox="0 0 300 300" class="font"><!----><defs data-v-fde0c5aa=""><!----></defs><rect data-v-fde0c5aa="" fill="transparent" x="0" y="0" width="300px" height="300px" class="logo-background-square"></rect><defs data-v-fde0c5aa=""><linearGradient data-v-fde0c5aa="" gradientTransform="rotate(25)" id="9e0ccbd6-824d-496c-a2ea-2bcd133be895" x1="0%" y1="0%" x2="100%" y2="0%"><stop data-v-fde0c5aa="" offset="0%" stop-color="#5A0E1D" stop-opacity="1"></stop><stop data-v-fde0c5aa="" offset="100%" stop-color="#B39984" stop-opacity="1"></stop></linearGradient></defs><g data-v-fde0c5aa="" id="4bf6e9b2-82b2-4ad9-8471-9d0e8674d5db" fill="url(#9e0ccbd6-824d-496c-a2ea-2bcd133be895)" transform="matrix(5.8839262795202885,0,0,5.8839262795202885,40,105.46358277617738)"><path d="M2.98 9.08L2.98 9.08Q2.86 9.23 2.76 9.34Q2.65 9.45 2.54 9.53Q2.42 9.60 2.28 9.66Q2.14 9.71 1.96 9.73L1.96 9.73Q1.87 9.74 1.78 9.74Q1.68 9.75 1.57 9.73L1.57 9.73Q1.42 9.72 1.28 9.72Q1.13 9.72 0.98 9.69L0.98 9.69Q0.66 9.61 0.44 9.46Q0.22 9.31 0.10 9.07L0.10 9.07Q-0.05 8.74 0.27 8.73L0.27 8.73Q0.33 8.73 0.40 8.81Q0.47 8.89 0.51 8.93L0.51 8.93Q0.66 9.07 0.68 9.08L0.68 9.08L0.68 9.08L0.68 9.09Q1.02 9.32 1.57 9.32L1.57 9.32L1.58 9.32L1.59 9.32Q1.82 9.32 2.18 9.23L2.18 9.23Q2.54 9.14 2.65 8.87L2.65 8.87Q2.71 8.70 2.65 8.51L2.65 8.51L2.65 8.50Q2.48 8.14 1.99 8.02L1.99 8.02L1.15 7.80Q0.97 7.76 0.72 7.63L0.72 7.63Q0.59 7.56 0.49 7.51Q0.40 7.45 0.33 7.40L0.33 7.40Q0.05 7.19 0.01 6.99L0.01 6.99Q0 6.95 0 6.89Q0 6.83 0 6.74L0 6.74Q0 6.64 0.01 6.55Q0.03 6.46 0.04 6.36L0.04 6.36Q0.08 6.04 0.31 5.80L0.31 5.80Q0.41 5.69 0.56 5.62Q0.70 5.55 0.84 5.49L0.84 5.49Q1.03 5.40 1.24 5.40Q1.45 5.39 1.65 5.40L1.65 5.40Q2.32 5.42 2.70 5.87L2.70 5.87Q2.87 6.08 2.83 6.22L2.83 6.22L2.78 6.26Q2.67 6.32 2.52 6.19L2.52 6.19Q2.48 6.16 2.45 6.13Q2.41 6.09 2.38 6.06L2.38 6.06Q2.34 6.02 2.29 5.98Q2.24 5.95 2.17 5.91L2.17 5.91L2.15 5.90L2.13 5.90Q1.88 5.82 1.62 5.81Q1.35 5.80 1.07 5.86L1.07 5.86Q0.74 5.93 0.56 6.14Q0.38 6.34 0.38 6.67L0.38 6.67L0.38 6.69L0.39 6.70Q0.42 7.12 1.05 7.30L1.05 7.30L1.24 7.36L1.75 7.53Q1.87 7.57 1.98 7.62Q2.10 7.67 2.23 7.72L2.23 7.72Q2.42 7.81 2.58 7.90Q2.75 7.98 2.88 8.07L2.88 8.07Q2.98 8.13 3.03 8.22Q3.08 8.31 3.10 8.41Q3.12 8.51 3.11 8.62Q3.11 8.73 3.09 8.82L3.09 8.82Q3.08 8.89 3.05 8.96Q3.01 9.03 2.98 9.08ZM8.11 5.75L8.11 5.75Q8.01 5.86 7.79 5.84L7.79 5.84L7.45 5.82Q7.35 5.82 7.25 5.81Q7.16 5.80 7.05 5.80L7.05 5.80Q6.85 5.80 6.75 5.89L6.75 5.89Q6.68 5.98 6.68 6.19L6.68 6.19Q6.68 6.28 6.69 6.37Q6.70 6.47 6.70 6.56L6.70 6.56Q6.71 6.79 6.71 6.96Q6.71 7.12 6.71 7.24L6.71 7.24Q6.71 7.59 6.67 7.94L6.67 7.94Q6.65 8.10 6.67 8.26Q6.69 8.43 6.70 8.59L6.70 8.59Q6.71 8.76 6.71 8.89Q6.71 9.02 6.71 9.11L6.71 9.11Q6.71 9.15 6.71 9.20Q6.71 9.26 6.71 9.35L6.71 9.35Q6.69 9.54 6.68 9.58L6.68 9.58Q6.59 9.73 6.45 9.69L6.45 9.69Q6.27 9.65 6.27 9.43L6.27 9.43Q6.26 9.22 6.28 9.01Q6.30 8.80 6.31 8.60L6.31 8.60Q6.33 8.36 6.31 8.11Q6.28 7.87 6.28 7.62L6.28 7.62Q6.28 7.40 6.30 7.17Q6.32 6.94 6.32 6.71L6.32 6.71Q6.32 6.27 6.18 6.08L6.18 6.08Q6.10 5.99 6.00 5.94Q5.89 5.89 5.76 5.87L5.76 5.87Q5.63 5.86 5.52 5.85Q5.41 5.84 5.30 5.84L5.30 5.84Q5.22 5.84 5.09 5.84Q4.96 5.84 4.89 5.80L4.89 5.80Q4.84 5.77 4.83 5.67L4.83 5.67Q4.81 5.59 4.85 5.54L4.85 5.54Q4.89 5.46 5.09 5.43L5.09 5.43Q5.11 5.43 5.16 5.43L5.16 5.43Q5.45 5.42 5.72 5.45Q5.99 5.48 6.28 5.46L6.28 5.46Q6.39 5.46 6.50 5.44Q6.62 5.43 6.74 5.43L6.74 5.43Q6.97 5.43 7.19 5.43Q7.42 5.43 7.65 5.42L7.65 5.42Q7.77 5.42 7.85 5.43Q7.94 5.43 8.00 5.46L8.00 5.46Q8.21 5.61 8.11 5.75ZM10.05 9.70L10.05 9.70Q9.83 9.67 9.83 9.44L9.83 9.44Q9.82 9.07 9.82 8.72Q9.82 8.36 9.82 7.99L9.82 7.99Q9.82 7.79 9.84 7.58L9.84 7.58Q9.86 7.43 9.86 7.30Q9.86 7.17 9.85 7.06L9.85 7.06Q9.84 6.99 9.84 6.90Q9.83 6.80 9.82 6.67L9.82 6.67Q9.82 6.60 9.83 6.51Q9.83 6.41 9.84 6.28L9.84 6.28Q9.84 6.19 9.85 6.11Q9.85 6.04 9.85 5.99L9.85 5.99L9.85 5.84L9.85 5.83L9.85 5.78Q9.83 5.61 9.86 5.54L9.86 5.54Q9.88 5.49 9.95 5.44L9.95 5.44Q10.21 5.30 10.27 5.61L10.27 5.61Q10.33 5.84 10.34 6.07Q10.35 6.29 10.33 6.51L10.33 6.51L10.33 6.51Q10.31 6.73 10.32 6.94Q10.33 7.15 10.31 7.36L10.31 7.36Q10.29 7.55 10.27 7.68Q10.26 7.82 10.25 7.92L10.25 7.92Q10.24 8.05 10.24 8.20Q10.24 8.35 10.25 8.51L10.25 8.51Q10.25 8.54 10.25 8.59Q10.25 8.63 10.25 8.70L10.25 8.70Q10.25 8.80 10.25 8.91Q10.25 9.02 10.26 9.13L10.26 9.13Q10.26 9.20 10.26 9.27Q10.27 9.33 10.26 9.40L10.26 9.40Q10.26 9.54 10.25 9.55L10.25 9.55Q10.23 9.68 10.05 9.70ZM14.88 5.67L14.88 5.67Q15.02 5.82 15.10 5.99Q15.19 6.16 15.28 6.34L15.28 6.34Q15.37 6.54 15.34 6.74Q15.30 6.94 15.11 7.13L15.11 7.13Q14.97 7.28 14.64 7.37L14.64 7.37Q14.51 7.40 14.37 7.44Q14.23 7.48 14.18 7.60L14.18 7.60Q14.14 7.72 14.20 7.84L14.20 7.84Q14.27 7.97 14.31 8.05Q14.35 8.13 14.38 8.18L14.38 8.18Q14.41 8.24 14.46 8.33Q14.52 8.42 14.59 8.52L14.59 8.52Q14.75 8.74 14.93 8.93Q15.10 9.13 15.28 9.30L15.28 9.30L15.31 9.34Q15.46 9.49 15.32 9.63L15.32 9.63Q15.16 9.79 15.02 9.64L15.02 9.64Q14.90 9.52 14.81 9.43Q14.72 9.34 14.65 9.26L14.65 9.26Q14.49 9.05 14.34 8.83L14.34 8.83Q14.24 8.67 14.13 8.53Q14.03 8.39 13.93 8.23L13.93 8.23Q13.66 7.74 13.25 7.58L13.25 7.58Q12.82 7.42 12.63 7.70L12.63 7.70Q12.56 7.80 12.56 7.92L12.56 7.92L12.56 9.40L12.56 9.49Q12.56 9.69 12.35 9.70L12.35 9.70Q12.14 9.69 12.14 9.44L12.14 9.44Q12.14 9.28 12.15 9.12Q12.16 8.95 12.17 8.76L12.17 8.76Q12.17 8.63 12.16 8.49Q12.15 8.35 12.15 8.22L12.15 8.22Q12.15 8.09 12.16 7.96Q12.17 7.83 12.17 7.70L12.17 7.70Q12.17 7.40 12.15 7.07L12.15 7.07Q12.15 6.84 12.16 6.61Q12.17 6.38 12.16 6.14L12.16 6.14Q12.15 6.02 12.15 5.86Q12.15 5.71 12.20 5.58L12.20 5.58Q12.32 5.42 12.78 5.42L12.78 5.42L12.99 5.42Q13.23 5.42 13.48 5.44Q13.73 5.46 13.98 5.45L13.98 5.45Q14.55 5.42 14.88 5.67ZM12.95 7.15L12.95 7.15Q13.21 7.16 13.41 7.16Q13.61 7.16 13.75 7.14L13.75 7.14Q13.88 7.13 14.04 7.11Q14.20 7.09 14.39 7.05L14.39 7.05Q14.78 6.97 14.90 6.69L14.90 6.69Q14.94 6.59 14.93 6.47L14.93 6.47Q14.92 6.34 14.85 6.24Q14.79 6.14 14.69 6.07Q14.59 6.00 14.47 5.94Q14.36 5.89 14.25 5.87L14.25 5.87Q13.96 5.82 13.68 5.83Q13.39 5.84 13.10 5.82L13.10 5.82Q13.05 5.82 13.00 5.82Q12.95 5.82 12.89 5.82L12.89 5.82Q12.75 5.81 12.67 5.89L12.67 5.89Q12.61 5.96 12.63 6.08L12.63 6.08Q12.63 6.12 12.63 6.23L12.63 6.23Q12.63 6.33 12.61 6.43Q12.59 6.52 12.58 6.62L12.58 6.62Q12.54 6.88 12.65 7.01L12.65 7.01Q12.74 7.14 12.95 7.15ZM17.92 6.24L17.92 6.24Q17.97 6.36 18.00 6.48Q18.03 6.60 18.06 6.73Q18.09 6.85 18.13 6.97Q18.17 7.10 18.23 7.21L18.23 7.21Q18.35 7.42 18.45 7.64Q18.54 7.85 18.64 8.07L18.64 8.07L18.79 8.37Q18.89 8.55 19.05 8.57L19.05 8.57Q19.26 8.59 19.41 8.24L19.41 8.24Q19.50 8.05 19.58 7.84Q19.65 7.63 19.72 7.42L19.72 7.42Q19.73 7.40 19.76 7.34Q19.79 7.27 19.86 7.16L19.86 7.16Q19.90 7.08 19.94 7.02Q19.97 6.95 20.01 6.90L20.01 6.90Q20.17 6.58 20.32 6.25Q20.48 5.91 20.60 5.56L20.60 5.56Q20.62 5.47 20.68 5.45L20.68 5.45Q20.73 5.43 20.90 5.50L20.90 5.50Q21.03 5.57 21.04 5.61L21.04 5.61Q21.05 5.67 21.01 5.77Q20.96 5.87 20.94 5.93L20.94 5.93L20.87 6.05Q20.81 6.16 20.76 6.27Q20.71 6.37 20.66 6.47L20.66 6.47Q20.56 6.66 20.49 6.85Q20.42 7.04 20.34 7.23L20.34 7.23Q20.15 7.64 19.96 8.04Q19.78 8.45 19.56 8.84L19.56 8.84Q19.47 9.00 19.40 9.21L19.40 9.21Q19.33 9.45 19.20 9.54L19.20 9.54Q19.15 9.58 19.08 9.59L19.08 9.59Q19.04 9.60 18.96 9.57L18.96 9.57Q18.91 9.55 18.87 9.50Q18.83 9.45 18.80 9.39Q18.77 9.33 18.74 9.27Q18.72 9.21 18.70 9.16L18.70 9.16Q18.55 8.93 18.42 8.65Q18.30 8.37 18.16 8.04L18.16 8.04Q18.05 7.82 17.97 7.59Q17.88 7.37 17.77 7.15L17.77 7.15Q17.72 7.08 17.62 6.77L17.62 6.77Q17.61 6.73 17.59 6.65Q17.57 6.58 17.53 6.49L17.53 6.49Q17.47 6.34 17.40 6.21Q17.33 6.07 17.26 5.93L17.26 5.93Q17.15 5.67 17.15 5.61L17.15 5.61Q17.17 5.48 17.29 5.43L17.29 5.43Q17.49 5.35 17.59 5.59L17.59 5.59Q17.66 5.76 17.75 5.92Q17.84 6.08 17.92 6.24ZM26.56 9.47L26.56 9.47Q26.56 9.65 26.42 9.69L26.42 9.69Q26.30 9.75 26.20 9.61L26.20 9.61Q26.15 9.54 26.12 9.49Q26.09 9.43 26.07 9.39L26.07 9.39Q25.98 9.18 25.90 9.03Q25.83 8.87 25.75 8.78L25.75 8.78Q25.59 8.55 25.39 8.49L25.39 8.49Q25.22 8.44 24.84 8.48L24.84 8.48Q24.62 8.50 24.43 8.51Q24.23 8.52 24.06 8.50L24.06 8.50Q23.66 8.48 23.47 8.76L23.47 8.76L23.45 8.78L23.45 8.79Q23.38 8.93 23.33 9.06Q23.29 9.19 23.23 9.32L23.23 9.32L23.08 9.54Q22.99 9.69 22.89 9.70L22.89 9.70Q22.84 9.72 22.75 9.65L22.75 9.65Q22.71 9.60 22.70 9.55Q22.69 9.49 22.70 9.43Q22.71 9.37 22.73 9.30Q22.76 9.24 22.78 9.19L22.78 9.19L22.94 8.85Q23.18 8.35 23.39 7.85Q23.60 7.34 23.83 6.83L23.83 6.83Q23.87 6.74 23.90 6.66Q23.93 6.58 23.97 6.51L23.97 6.51Q24.04 6.32 24.12 6.14Q24.19 5.95 24.29 5.76L24.29 5.76L24.39 5.61Q24.47 5.48 24.53 5.48L24.53 5.48Q24.60 5.46 24.71 5.59L24.71 5.59Q24.83 5.73 24.93 5.91Q25.04 6.10 25.12 6.26L25.12 6.26Q25.35 6.77 25.56 7.28Q25.77 7.79 26.01 8.28L26.01 8.28Q26.09 8.43 26.16 8.58Q26.23 8.74 26.31 8.88L26.31 8.88Q26.35 8.98 26.40 9.08Q26.44 9.17 26.48 9.27L26.48 9.27Q26.52 9.34 26.54 9.39Q26.56 9.44 26.56 9.47ZM25.21 7.56L25.21 7.56Q25.14 7.40 25.08 7.22Q25.01 7.05 24.92 6.88L24.92 6.88Q24.76 6.57 24.56 6.58L24.56 6.58Q24.49 6.58 24.43 6.62Q24.37 6.67 24.33 6.72Q24.29 6.78 24.25 6.85Q24.22 6.92 24.20 6.98L24.20 6.98Q24.12 7.18 24.06 7.40Q23.99 7.62 23.93 7.83L23.93 7.83Q23.88 7.98 23.94 8.05L23.94 8.05Q23.98 8.12 24.15 8.13L24.15 8.13Q24.30 8.14 24.42 8.15Q24.53 8.15 24.61 8.14L24.61 8.14Q24.76 8.14 25.01 8.10L25.01 8.10Q25.26 8.06 25.31 7.88L25.31 7.88Q25.33 7.77 25.28 7.69L25.28 7.69Q25.27 7.66 25.24 7.63Q25.22 7.59 25.21 7.56ZM28.66 9.56L28.66 9.56Q28.63 9.68 28.44 9.70L28.44 9.70Q28.25 9.69 28.25 9.49L28.25 9.49Q28.25 8.96 28.23 8.41Q28.21 7.87 28.26 7.33L28.26 7.33L28.26 7.33Q28.26 7.17 28.26 7.02Q28.27 6.87 28.25 6.73L28.25 6.73L28.20 6.21Q28.18 5.99 28.27 5.74L28.27 5.74Q28.33 5.56 28.45 5.52L28.45 5.52Q28.55 5.50 28.65 5.62L28.65 5.62Q28.75 5.72 28.79 5.80L28.79 5.80Q28.88 5.93 28.97 6.03Q29.07 6.13 29.16 6.22L29.16 6.22Q29.23 6.31 29.31 6.37Q29.39 6.44 29.46 6.52L29.46 6.52Q29.53 6.59 29.61 6.70Q29.70 6.80 29.79 6.95L29.79 6.95L30.09 7.41Q30.13 7.46 30.16 7.52Q30.20 7.58 30.26 7.66L30.26 7.66L30.26 7.67Q30.41 7.86 30.56 8.03L30.56 8.03Q30.64 8.11 30.71 8.19Q30.79 8.26 30.87 8.33L30.87 8.33Q30.95 8.42 31.05 8.39L31.05 8.39Q31.21 8.35 31.20 8.07L31.20 8.07Q31.20 8.00 31.19 7.93Q31.18 7.85 31.18 7.78L31.18 7.78Q31.17 7.72 31.17 7.67Q31.16 7.62 31.16 7.56L31.16 7.56Q31.16 7.53 31.15 7.50Q31.15 7.46 31.15 7.42L31.15 7.42Q31.18 6.82 31.11 6.30L31.11 6.30Q31.10 6.27 31.10 6.19Q31.10 6.11 31.12 5.99L31.12 5.99Q31.12 5.84 31.16 5.67L31.16 5.67Q31.18 5.42 31.38 5.42L31.38 5.42Q31.60 5.42 31.60 5.68L31.60 5.68Q31.60 5.89 31.61 6.11Q31.62 6.32 31.62 6.54L31.62 6.54Q31.63 6.85 31.61 7.16Q31.59 7.48 31.60 7.79L31.60 7.79Q31.62 8.00 31.61 8.21Q31.61 8.42 31.60 8.62L31.60 8.62Q31.60 8.74 31.61 8.85Q31.61 8.96 31.61 9.06L31.61 9.06L31.61 9.34Q31.60 9.38 31.60 9.42Q31.60 9.46 31.60 9.50L31.60 9.50Q31.59 9.50 31.59 9.51L31.59 9.51Q31.59 9.52 31.58 9.52L31.58 9.52Q31.51 9.62 31.35 9.62L31.35 9.62Q31.17 9.63 31.07 9.50L31.07 9.50Q30.97 9.37 30.88 9.22Q30.80 9.07 30.69 8.93L30.69 8.93Q30.57 8.76 30.42 8.58Q30.28 8.39 30.10 8.18L30.10 8.18Q30.03 8.10 29.91 7.90L29.91 7.90L29.67 7.52Q29.58 7.38 29.49 7.24Q29.40 7.10 29.31 6.97L29.31 6.97Q29.26 6.92 29.22 6.87Q29.17 6.81 29.11 6.77Q29.06 6.73 28.99 6.71Q28.92 6.69 28.85 6.71L28.85 6.71Q28.67 6.76 28.68 7.08L28.68 7.08Q28.69 7.31 28.69 7.52Q28.70 7.72 28.71 7.90L28.71 7.90Q28.72 8.05 28.71 8.19Q28.69 8.33 28.69 8.47L28.69 8.47L28.69 9.00Q28.69 9.17 28.68 9.31Q28.67 9.45 28.66 9.56ZM37.39 9.47L37.39 9.47Q37.39 9.65 37.24 9.69L37.24 9.69Q37.12 9.75 37.02 9.61L37.02 9.61Q36.98 9.54 36.94 9.49Q36.91 9.43 36.89 9.39L36.89 9.39Q36.80 9.18 36.72 9.03Q36.65 8.87 36.57 8.78L36.57 8.78Q36.41 8.55 36.21 8.49L36.21 8.49Q36.04 8.44 35.66 8.48L35.66 8.48Q35.44 8.50 35.25 8.51Q35.05 8.52 34.88 8.50L34.88 8.50Q34.48 8.48 34.29 8.76L34.29 8.76L34.28 8.78L34.27 8.79Q34.20 8.93 34.16 9.06Q34.11 9.19 34.05 9.32L34.05 9.32L33.91 9.54Q33.81 9.69 33.71 9.70L33.71 9.70Q33.66 9.72 33.57 9.65L33.57 9.65Q33.53 9.60 33.52 9.55Q33.51 9.49 33.52 9.43Q33.53 9.37 33.55 9.30Q33.58 9.24 33.60 9.19L33.60 9.19L33.76 8.85Q34.00 8.35 34.21 7.85Q34.42 7.34 34.65 6.83L34.65 6.83Q34.69 6.74 34.72 6.66Q34.75 6.58 34.79 6.51L34.79 6.51Q34.86 6.32 34.94 6.14Q35.01 5.95 35.11 5.76L35.11 5.76L35.21 5.61Q35.29 5.48 35.36 5.48L35.36 5.48Q35.42 5.46 35.53 5.59L35.53 5.59Q35.65 5.73 35.76 5.91Q35.86 6.10 35.94 6.26L35.94 6.26Q36.18 6.77 36.38 7.28Q36.59 7.79 36.83 8.28L36.83 8.28Q36.91 8.43 36.98 8.58Q37.05 8.74 37.13 8.88L37.13 8.88Q37.17 8.98 37.22 9.08Q37.26 9.17 37.30 9.27L37.30 9.27Q37.34 9.34 37.36 9.39Q37.38 9.44 37.39 9.47ZM36.03 7.56L36.03 7.56Q35.96 7.40 35.90 7.22Q35.83 7.05 35.75 6.88L35.75 6.88Q35.58 6.57 35.38 6.58L35.38 6.58Q35.31 6.58 35.25 6.62Q35.19 6.67 35.15 6.72Q35.11 6.78 35.08 6.85Q35.04 6.92 35.02 6.98L35.02 6.98Q34.95 7.18 34.88 7.40Q34.81 7.62 34.75 7.83L34.75 7.83Q34.70 7.98 34.76 8.05L34.76 8.05Q34.80 8.12 34.97 8.13L34.97 8.13Q35.12 8.14 35.24 8.15Q35.36 8.15 35.43 8.14L35.43 8.14Q35.58 8.14 35.83 8.10L35.83 8.10Q36.08 8.06 36.13 7.88L36.13 7.88Q36.15 7.77 36.10 7.69L36.10 7.69Q36.09 7.66 36.06 7.63Q36.04 7.59 36.03 7.56Z"></path></g><!----><!----></svg>